<?xml version="1.0" encoding="UTF-8" standalone="no"?>
<!-- Created with Inkscape (http://www.inkscape.org/) -->

<svg
   xmlns:dc="http://purl.org/dc/elements/1.1/"
   xmlns:cc="http://creativecommons.org/ns#"
   xmlns:rdf="http://www.w3.org/1999/02/22-rdf-syntax-ns#"
   xmlns:svg="http://www.w3.org/2000/svg"
   xmlns="http://www.w3.org/2000/svg"
   xmlns:xlink="http://www.w3.org/1999/xlink"
   xmlns:sodipodi="http://sodipodi.sourceforge.net/DTD/sodipodi-0.dtd"
   xmlns:inkscape="http://www.inkscape.org/namespaces/inkscape"
   width="128.03232"
   height="220.93912"
   id="svg20568"
   version="1.1"
   inkscape:version="0.48+devel r11664"
   sodipodi:docname="BeamDesigns.svg">
  <title
     id="title21567">MagneTank Beam Designs</title>
  <defs
     id="defs20570">
    <clipPath
       clipPathUnits="userSpaceOnUse"
       id="clipPath3381">
      <path
         style="font-size:xx-small;font-style:normal;font-variant:normal;font-weight:normal;font-stretch:normal;text-indent:0;text-align:start;text-decoration:none;line-height:normal;letter-spacing:normal;word-spacing:normal;text-transform:none;direction:ltr;block-progression:tb;writing-mode:lr-tb;text-anchor:start;baseline-shift:baseline;opacity:0.5;color:#000000;fill:#0000ff;fill-opacity:1;fill-rule:nonzero;stroke:none;stroke-width:16;marker:none;visibility:visible;display:inline;overflow:visible;enable-background:accumulate;font-family:Sans;-inkscape-font-specification:Sans"
         d="M -600.23185,1264.8763 -608.17248,1314.3994 -615.94323,1264.1715 C -615.94323,1264.1715 -613.40414,1305.3626 -613.77129,1325.9845 -614.03279,1340.6727 -616.88326,1369.8579 -616.88326,1369.8579 L -608.87562,1344.3143 -601.40377,1388.583 C -601.42544,1390.8101 -602.36906,1346.8517 -602.16606,1325.9845 -601.96772,1305.5979 -600.23185,1264.8763 -600.23185,1264.8763 z"
         id="path3383"
         inkscape:connector-curvature="0"
         sodipodi:nodetypes="cccacccac" />
    </clipPath>
    <linearGradient
       inkscape:collect="always"
       xlink:href="#linearGradient19919"
       id="linearGradient3369"
       gradientUnits="userSpaceOnUse"
       gradientTransform="matrix(1,0,0,1.5510211,-793.60129,-649.9133)"
       x1="-531.69818"
       y1="789.51294"
       x2="-531.69818"
       y2="806.83704" />
    <linearGradient
       id="linearGradient19919"
       inkscape:collect="always">
      <stop
         id="stop19921"
         offset="0"
         style="stop-color:#000000;stop-opacity:1;" />
      <stop
         id="stop19923"
         offset="1"
         style="stop-color:#000000;stop-opacity:0;" />
    </linearGradient>
    <linearGradient
       inkscape:collect="always"
       xlink:href="#linearGradient19919"
       id="linearGradient3371"
       gradientUnits="userSpaceOnUse"
       gradientTransform="matrix(1,0,0,1.5510211,-793.60132,-1863.1891)"
       x1="-531.69818"
       y1="789.51294"
       x2="-531.69818"
       y2="806.83704" />
    <linearGradient
       y2="392.23718"
       x2="333.25"
       y1="392.23718"
       x1="313.01639"
       gradientTransform="matrix(0.79184557,-0.49493497,0.79237442,0.49460463,-901.40118,951.95513)"
       gradientUnits="userSpaceOnUse"
       id="linearGradient21427"
       xlink:href="#linearGradient21409"
       inkscape:collect="always" />
    <linearGradient
       id="linearGradient21409">
      <stop
         id="stop21411"
         offset="0"
         style="stop-color:#193a3b;stop-opacity:1;" />
      <stop
         style="stop-color:#688187;stop-opacity:1;"
         offset="0.28920701"
         id="stop21413" />
      <stop
         id="stop21415"
         offset="0.71881527"
         style="stop-color:#5c6e5d;stop-opacity:1;" />
      <stop
         style="stop-color:#022800;stop-opacity:1;"
         offset="1"
         id="stop21417" />
    </linearGradient>
    <linearGradient
       y2="392.23718"
       x2="333.25"
       y1="392.23718"
       x1="313.01639"
       gradientTransform="matrix(0.79184557,0.49493496,0.79237442,-0.49460463,-901.40118,988.32467)"
       gradientUnits="userSpaceOnUse"
       id="linearGradient21401"
       xlink:href="#linearGradient21409"
       inkscape:collect="always" />
    <linearGradient
       y2="975.82605"
       x2="-306.92947"
       y1="975.82605"
       x1="-329.06876"
       gradientTransform="matrix(1.1202132,0,0,0.62938754,-0.86631392,323.96714)"
       gradientUnits="userSpaceOnUse"
       id="linearGradient21403"
       xlink:href="#linearGradient21409"
       inkscape:collect="always" />
    <linearGradient
       y2="975.82605"
       x2="-306.92947"
       y1="975.82605"
       x1="-329.06876"
       gradientTransform="matrix(1.1202123,0,0,0.62938754,44.104214,323.96714)"
       gradientUnits="userSpaceOnUse"
       id="linearGradient21405"
       xlink:href="#linearGradient21409"
       inkscape:collect="always" />
    <linearGradient
       y2="392.23718"
       x2="333.25"
       y1="392.23718"
       x1="313.01639"
       gradientTransform="matrix(0.79184557,-0.49493497,0.79237442,0.49460463,-901.40118,887.95513)"
       gradientUnits="userSpaceOnUse"
       id="linearGradient21433"
       xlink:href="#linearGradient21409"
       inkscape:collect="always" />
    <linearGradient
       y2="392.23718"
       x2="333.25"
       y1="392.23718"
       x1="313.01639"
       gradientTransform="matrix(0.79184557,0.49493496,0.79237442,-0.49460463,-901.40118,924.32467)"
       gradientUnits="userSpaceOnUse"
       id="linearGradient21435"
       xlink:href="#linearGradient21409"
       inkscape:collect="always" />
    <linearGradient
       y2="938.13989"
       x2="-326.74094"
       y1="938.13989"
       x1="-349.89871"
       gradientTransform="matrix(1.1202128,0,0,1,44.104361,0)"
       gradientUnits="userSpaceOnUse"
       id="linearGradient21407"
       xlink:href="#linearGradient13680"
       inkscape:collect="always" />
    <linearGradient
       id="linearGradient13680">
      <stop
         id="stop13682"
         offset="0"
         style="stop-color:#000000;stop-opacity:1;" />
      <stop
         style="stop-color:#000000;stop-opacity:0;"
         offset="0.25"
         id="stop13684" />
      <stop
         style="stop-color:#000000;stop-opacity:0;"
         offset="0.75"
         id="stop13686" />
      <stop
         id="stop13688"
         offset="1"
         style="stop-color:#000000;stop-opacity:1;" />
    </linearGradient>
    <linearGradient
       y2="806.83704"
       x2="-531.69818"
       y1="789.51294"
       x1="-531.69818"
       gradientTransform="matrix(1,0,0,1.5510211,-793.60129,-649.9133)"
       gradientUnits="userSpaceOnUse"
       id="linearGradient21379"
       xlink:href="#linearGradient19919"
       inkscape:collect="always" />
    <linearGradient
       y2="806.83704"
       x2="-531.69818"
       y1="789.51294"
       x1="-531.69818"
       gradientTransform="matrix(1,0,0,1.5510211,-793.60132,-1863.1891)"
       gradientUnits="userSpaceOnUse"
       id="linearGradient21381"
       xlink:href="#linearGradient19919"
       inkscape:collect="always" />
    <filter
       inkscape:collect="always"
       id="filter13674"
       x="-0.27169374"
       width="1.5433875"
       y="-0.056177039"
       height="1.1123542"
       style="color-interpolation-filters:sRGB">
      <feGaussianBlur
         inkscape:collect="always"
         stdDeviation="2.6215955"
         id="feGaussianBlur13676" />
    </filter>
    <linearGradient
       y2="392.23718"
       x2="333.25"
       y1="392.23718"
       x1="313.01639"
       gradientTransform="matrix(0.79184557,-0.74240276,0.79237442,0.74190726,-901.3107,918.86273)"
       gradientUnits="userSpaceOnUse"
       id="linearGradient21369"
       xlink:href="#linearGradient13589"
       inkscape:collect="always" />
    <linearGradient
       id="linearGradient13589">
      <stop
         style="stop-color:#29282c;stop-opacity:1"
         offset="0"
         id="stop13591" />
      <stop
         id="stop13593"
         offset="0.28920701"
         style="stop-color:#abaead;stop-opacity:1" />
      <stop
         style="stop-color:#b6b6b6;stop-opacity:1;"
         offset="0.71881527"
         id="stop13595" />
      <stop
         id="stop13597"
         offset="1"
         style="stop-color:#151513;stop-opacity:1;" />
    </linearGradient>
    <linearGradient
       y2="392.23718"
       x2="333.25"
       y1="392.23718"
       x1="313.01639"
       gradientTransform="matrix(0.79184557,0.74240244,0.79237442,-0.74190694,-901.3107,957.41704)"
       gradientUnits="userSpaceOnUse"
       id="linearGradient21371"
       xlink:href="#linearGradient13589"
       inkscape:collect="always" />
    <linearGradient
       y2="975.82605"
       x2="-306.92947"
       y1="975.82605"
       x1="-329.06876"
       gradientTransform="matrix(1.1202132,0,0,0.62938754,-0.86631392,323.96714)"
       gradientUnits="userSpaceOnUse"
       id="linearGradient21373"
       xlink:href="#linearGradient13589"
       inkscape:collect="always" />
    <linearGradient
       y2="975.82605"
       x2="-306.92947"
       y1="975.82605"
       x1="-329.06876"
       gradientTransform="matrix(1.1202123,0,0,0.62938754,44.104214,323.96714)"
       gradientUnits="userSpaceOnUse"
       id="linearGradient21375"
       xlink:href="#linearGradient13589"
       inkscape:collect="always" />
    <linearGradient
       y2="938.13989"
       x2="-326.74094"
       y1="938.13989"
       x1="-349.89871"
       gradientTransform="matrix(1.1202128,0,0,1,44.104361,0)"
       gradientUnits="userSpaceOnUse"
       id="linearGradient21306"
       xlink:href="#linearGradient13680"
       inkscape:collect="always" />
  </defs>
  <sodipodi:namedview
     id="base"
     pagecolor="#ffffff"
     bordercolor="#666666"
     borderopacity="1.0"
     inkscape:pageopacity="0.0"
     inkscape:pageshadow="2"
     inkscape:zoom="0.35"
     inkscape:cx="111.90631"
     inkscape:cy="128.76728"
     inkscape:document-units="px"
     inkscape:current-layer="layer1"
     showgrid="false"
     width="0px"
     height="0px"
     fit-margin-top="0"
     fit-margin-left="0"
     fit-margin-right="0"
     fit-margin-bottom="0" />
  <metadata
     id="metadata20573">
    <rdf:RDF>
      <cc:Work
         rdf:about="">
        <dc:format>image/svg+xml</dc:format>
        <dc:type
           rdf:resource="http://purl.org/dc/dcmitype/StillImage" />
        <cc:license
           rdf:resource="" />
        <dc:title>MagneTank Beam Designs</dc:title>
        <dc:date>September 2012</dc:date>
        <dc:creator>
          <cc:Agent>
            <dc:title>Brian Broyles for IFL Game Studio</dc:title>
          </cc:Agent>
        </dc:creator>
        <dc:rights>
          <cc:Agent>
            <dc:title>Copyright 2012 by Brian Broyles. See Description for Rights.</dc:title>
          </cc:Agent>
        </dc:rights>
        <dc:description>This artwork can only be distributed inside of a compiled Android application (apk) by individuals that have purchased a copy of the book AndEngine for Android Game Development Cookbook</dc:description>
      </cc:Work>
    </rdf:RDF>
  </metadata>
  <g
     inkscape:label="Layer 1"
     inkscape:groupmode="layer"
     id="layer1"
     transform="translate(4.7460937e-6,-831.42307)">
    <g
       id="g13813"
       transform="matrix(0,1,-1,0,1002.1722,1262.3089)">
      <rect
         y="874.13989"
         x="-347.85663"
         height="128"
         width="25.941645"
         id="rect13815"
         style="fill:#625d5d;fill-opacity:1;fill-rule:nonzero;stroke:none" />
      <path
         transform="matrix(1.1202128,0,0,1,44.104361,0)"
         inkscape:connector-curvature="0"
         d="M -349.81794,906.159 -326.74094,882.13989 -326.66014,905.88884 -349.7814,930.13989 z M -349.81794,970.12079 -326.74094,994.1399 -326.66014,970.39095 -349.7814,946.13989 z"
         style="fill:#000000;fill-opacity:1;stroke:none;filter:url(#filter13674)"
         id="path13817" />
      <path
         inkscape:connector-curvature="0"
         id="path13819"
         d="M -347.76616,970.12079 -321.91501,994.1399 -321.8245,970.39095 -347.72523,946.13989 z"
         style="fill:url(#linearGradient21369);fill-opacity:1;stroke:none" />
      <path
         style="fill:url(#linearGradient21371);fill-opacity:1;stroke:none"
         d="M -347.76616,906.159 -321.91501,882.13989 -321.8245,905.88884 -347.72523,930.13989 z"
         id="path13821"
         inkscape:connector-curvature="0" />
      <rect
         style="fill:url(#linearGradient21373);fill-opacity:1;fill-rule:nonzero;stroke:none"
         id="rect13823"
         width="19.02919"
         height="128"
         x="-366.88583"
         y="874.13989" />
      <rect
         y="874.13989"
         x="-321.91501"
         height="128"
         width="19.029173"
         id="rect13825"
         style="fill:url(#linearGradient21375);fill-opacity:1;fill-rule:nonzero;stroke:none" />
      <rect
         style="opacity:0.41228069;fill:url(#linearGradient21306);fill-opacity:1;fill-rule:nonzero;stroke:none"
         id="rect13827"
         width="25.941645"
         height="128"
         x="-347.85663"
         y="874.13989" />
    </g>
    <g
       id="g20151"
       transform="matrix(0,-1,1,0,-1261.2673,384.78514)">
      <rect
         transform="matrix(0,-1,1,0,0,0)"
         y="-638.63788"
         x="-1389.2996"
         height="64"
         width="128"
         id="rect20090"
         style="fill:#928851;fill-opacity:1;stroke:none" />
      <rect
         y="574.63788"
         x="-1389.2996"
         height="26.870041"
         width="128"
         id="rect20106"
         style="opacity:0.47807019;fill:url(#linearGradient21379);fill-opacity:1;fill-rule:nonzero;stroke:none"
         transform="matrix(0,-1,-1,0,0,0)" />
      <rect
         transform="matrix(0,-1,1,0,0,0)"
         style="opacity:0.47807019;fill:url(#linearGradient21381);fill-opacity:1;fill-rule:nonzero;stroke:none"
         id="rect20104"
         width="128"
         height="26.870041"
         x="-1389.2996"
         y="-638.63788" />
      <g
         style="opacity:0.5482456"
         transform="translate(0,-210)"
         id="g20147">
        <path
           id="path20102"
           style="fill:none;stroke:#cdbd6d;stroke-width:0.52032101;stroke-opacity:1"
           d="M -608.50787,1471.6511 -609.0235,1487.1777 -608.63952,1503.2183 -608.21085,1519.2589 -609.42861,1535.2995 -608.46678,1551.3401 -607.73649,1567.3808 -609.6159,1583.4214 -608.50787,1598.9479 M -611.94513,1471.6511 -611.00022,1487.1777 -612.0931,1503.2183 -610.40414,1519.2589 -611.41244,1535.2995 -612.93018,1551.3401 -613.14087,1567.3808 -612.63309,1583.4214 -611.94513,1598.9479 M -615.38238,1471.6511 -616.27969,1487.1777 -614.32941,1503.2183 -613.95645,1519.2589 -616.5299,1535.2995 -614.89642,1551.3401 -614.64694,1567.3808 -616.61996,1583.4214 -615.38238,1598.9479 M -618.81962,1471.6511 -619.60575,1487.1777 -618.49818,1503.2183 -619.73704,1519.2589 -617.64201,1535.2995 -619.54416,1551.3401 -618.09419,1567.3808 -617.44488,1583.4214 -618.81962,1598.9479 M -622.25687,1471.6511 -623.2886,1487.1777 -621.91771,1503.2183 -620.89433,1519.2589 -621.04085,1535.2995 -622.74869,1551.3401 -622.17324,1567.3808 -622.23138,1583.4214 -622.25687,1598.9479 M -625.69413,1471.6511 -625.75391,1487.1777 -625.45734,1503.2183 -624.60598,1519.2589 -626.8564,1535.2995 -624.66202,1551.3401 -624.39088,1567.3808 -627.11514,1583.4214 -625.69413,1598.9479 M -629.13137,1471.6511 -629.68989,1487.1777 -629.52225,1503.2183 -628.23769,1519.2589 -630.1558,1535.2995 -629.31458,1551.3401 -629.43018,1567.3808 -629.71591,1583.4214 -629.13137,1598.9479 M -632.56862,1471.6511 -634.11046,1487.1777 -634.11623,1503.2183 -631.60671,1519.2589 -633.68566,1535.2995 -631.38288,1551.3401 -631.43408,1567.3808 -633.76147,1583.4214 -632.56862,1598.9479 M -636.00588,1471.6511 -634.86707,1487.1777 -635.62971,1503.2183 -637.60379,1519.2589 -635.90817,1535.2995 -636.91706,1551.3401 -635.80499,1567.3808 -637.57869,1583.4214 -636.00588,1598.9479 M -577.15041,1471.6511 -577.66604,1487.1777 -577.28206,1503.2183 -576.85339,1519.2589 -578.07115,1535.2995 -577.10932,1551.3401 -576.37903,1567.3808 -578.25844,1583.4214 -577.15041,1598.9479 M -580.58767,1471.6511 -579.64276,1487.1777 -580.73564,1503.2183 -579.04668,1519.2589 -580.05498,1535.2995 -581.57272,1551.3401 -581.78341,1567.3808 -581.27563,1583.4214 -580.58767,1598.9479 M -584.02492,1471.6511 -584.92223,1487.1777 -582.97195,1503.2183 -582.59899,1519.2589 -585.17244,1535.2995 -583.53896,1551.3401 -583.28948,1567.3808 -585.2625,1583.4214 -584.02492,1598.9479 M -587.46216,1471.6511 -588.24829,1487.1777 -587.14072,1503.2183 -588.37958,1519.2589 -586.28455,1535.2995 -588.1867,1551.3401 -586.73673,1567.3808 -586.08742,1583.4214 -587.46216,1598.9479 M -590.89941,1471.6511 -591.93114,1487.1777 -590.56025,1503.2183 -589.53687,1519.2589 -589.68339,1535.2995 -591.39123,1551.3401 -590.81578,1567.3808 -590.87392,1583.4214 -590.89941,1598.9479 M -594.33667,1471.6511 -594.39645,1487.1777 -594.09988,1503.2183 -593.24852,1519.2589 -595.49894,1535.2995 -593.30456,1551.3401 -593.03342,1567.3808 -595.75768,1583.4214 -594.33667,1598.9479 M -597.77391,1471.6511 -598.33243,1487.1777 -598.16479,1503.2183 -596.88023,1519.2589 -598.79834,1535.2995 -597.95712,1551.3401 -598.07272,1567.3808 -598.35845,1583.4214 -597.77391,1598.9479 M -601.21116,1471.6511 -602.753,1487.1777 -602.75877,1503.2183 -600.24925,1519.2589 -602.3282,1535.2995 -600.02542,1551.3401 -600.07662,1567.3808 -602.40401,1583.4214 -601.21116,1598.9479 M -604.64842,1471.6511 -603.50961,1487.1777 -604.27225,1503.2183 -606.24633,1519.2589 -604.55071,1535.2995 -605.5596,1551.3401 -604.44753,1567.3808 -606.22123,1583.4214 -604.64842,1598.9479"
           inkscape:connector-curvature="0" />
        <path
           id="path20100"
           style="fill:#000000;fill-opacity:0.46842107;stroke:#000000;stroke-width:0.52032101;stroke-opacity:1"
           d="M -636.83241,1598.9479 -636.31678,1583.4214 -636.70077,1567.3807 -637.12943,1551.3401 -635.91167,1535.2995 -636.8735,1519.2589 -637.60379,1503.2182 -635.72438,1487.1776 -636.83241,1471.6511 M -633.39516,1598.9479 -634.34007,1583.4214 -633.24718,1567.3807 -634.93615,1551.3401 -633.92785,1535.2995 -632.41011,1519.2589 -632.19941,1503.2182 -632.70718,1487.1776 -633.39516,1471.6511 M -629.95791,1598.9479 -629.0606,1583.4214 -631.01087,1567.3807 -631.38382,1551.3401 -628.81038,1535.2995 -630.44386,1519.2589 -630.69334,1503.2182 -628.72032,1487.1776 -629.95791,1471.6511 M -626.52066,1598.9479 -625.73453,1583.4214 -626.84211,1567.3807 -625.60324,1551.3401 -627.69828,1535.2995 -625.79612,1519.2589 -627.2461,1503.2182 -627.8954,1487.1776 -626.52066,1471.6511 M -623.08341,1598.9479 -622.05168,1583.4214 -623.42257,1567.3807 -624.44595,1551.3401 -624.29944,1535.2995 -622.5916,1519.2589 -623.16704,1503.2182 -623.1089,1487.1776 -623.08341,1471.6511 M -619.64616,1598.9479 -619.58637,1583.4214 -619.88293,1567.3807 -620.73431,1551.3401 -618.48388,1535.2995 -620.67827,1519.2589 -620.9494,1503.2182 -618.22515,1487.1776 -619.64616,1471.6511 M -616.20891,1598.9479 -615.6504,1583.4214 -615.81804,1567.3807 -617.1026,1551.3401 -615.18449,1535.2995 -616.0257,1519.2589 -615.91011,1503.2182 -615.62437,1487.1776 -616.20891,1471.6511 M -612.77166,1598.9479 -611.22982,1583.4214 -611.22405,1567.3807 -613.73358,1551.3401 -611.65462,1535.2995 -613.95741,1519.2589 -613.9062,1503.2182 -611.57881,1487.1776 -612.77166,1471.6511 M -609.33441,1598.9479 -610.47322,1583.4214 -609.71057,1567.3807 -607.73649,1551.3401 -609.43211,1535.2995 -608.42323,1519.2589 -609.53529,1503.2182 -607.76159,1487.1776 -609.33441,1471.6511 M -605.47495,1598.9479 -604.95932,1583.4214 -605.34331,1567.3807 -605.77197,1551.3401 -604.55421,1535.2995 -605.51604,1519.2589 -606.24633,1503.2182 -604.36692,1487.1776 -605.47495,1471.6511 M -602.0377,1598.9479 -602.98261,1583.4214 -601.88972,1567.3807 -603.57869,1551.3401 -602.57039,1535.2995 -601.05265,1519.2589 -600.84195,1503.2182 -601.34972,1487.1776 -602.0377,1471.6511 M -598.60045,1598.9479 -597.70314,1583.4214 -599.65341,1567.3807 -600.02636,1551.3401 -597.45292,1535.2995 -599.0864,1519.2589 -599.33588,1503.2182 -597.36286,1487.1776 -598.60045,1471.6511 M -595.1632,1598.9479 -594.37707,1583.4214 -595.48465,1567.3807 -594.24578,1551.3401 -596.34082,1535.2995 -594.43866,1519.2589 -595.88864,1503.2182 -596.53794,1487.1776 -595.1632,1471.6511 M -591.72595,1598.9479 -590.69422,1583.4214 -592.06511,1567.3807 -593.08849,1551.3401 -592.94198,1535.2995 -591.23414,1519.2589 -591.80958,1503.2182 -591.75144,1487.1776 -591.72595,1471.6511 M -588.2887,1598.9479 -588.22891,1583.4214 -588.52547,1567.3807 -589.37685,1551.3401 -587.12642,1535.2995 -589.32081,1519.2589 -589.59194,1503.2182 -586.86769,1487.1776 -588.2887,1471.6511 M -584.85145,1598.9479 -584.29294,1583.4214 -584.46058,1567.3807 -585.74514,1551.3401 -583.82703,1535.2995 -584.66824,1519.2589 -584.55265,1503.2182 -584.26691,1487.1776 -584.85145,1471.6511 M -581.4142,1598.9479 -579.87236,1583.4214 -579.86659,1567.3807 -582.37612,1551.3401 -580.29716,1535.2995 -582.59995,1519.2589 -582.54874,1503.2182 -580.22135,1487.1776 -581.4142,1471.6511 M -577.97695,1598.9479 -579.11576,1583.4214 -578.35311,1567.3807 -576.37903,1551.3401 -578.07465,1535.2995 -577.06577,1519.2589 -578.17783,1503.2182 -576.40413,1487.1776 -577.97695,1471.6511"
           inkscape:connector-curvature="0" />
      </g>
    </g>
    <g
       transform="matrix(0,1,-1,0,1002.1722,1198.3089)"
       id="g21383">
      <rect
         style="fill:#2e2d2d;fill-opacity:1;fill-rule:nonzero;stroke:none"
         id="rect21385"
         width="25.941645"
         height="128"
         x="-347.85663"
         y="874.13989" />
      <path
         style="fill:url(#linearGradient21427);fill-opacity:1;stroke:none"
         d="M -347.85664,986.12716 -322.00549,1002.1399 -321.91498,986.30727 -347.81571,970.1399 z"
         id="path21389"
         inkscape:connector-curvature="0" />
      <path
         inkscape:connector-curvature="0"
         id="path21391"
         d="M -347.85664,954.15264 -322.00549,938.1399 -321.91498,953.97253 -347.81571,970.1399 z"
         style="fill:url(#linearGradient21401);fill-opacity:1;stroke:none" />
      <rect
         y="874.13989"
         x="-366.88583"
         height="128"
         width="19.02919"
         id="rect21393"
         style="fill:url(#linearGradient21403);fill-opacity:1;fill-rule:nonzero;stroke:none" />
      <rect
         style="fill:url(#linearGradient21405);fill-opacity:1;fill-rule:nonzero;stroke:none"
         id="rect21395"
         width="19.029173"
         height="128"
         x="-321.91501"
         y="874.13989" />
      <path
         inkscape:connector-curvature="0"
         id="path21429"
         d="M -347.85664,922.12716 -322.00549,938.1399 -321.91498,922.30727 -347.81571,906.1399 z"
         style="fill:url(#linearGradient21433);fill-opacity:1;stroke:none" />
      <path
         style="fill:url(#linearGradient21435);fill-opacity:1;stroke:none"
         d="M -347.85664,890.15264 -322.00549,874.1399 -321.91498,889.97253 -347.81571,906.1399 z"
         id="path21431"
         inkscape:connector-curvature="0" />
      <rect
         y="874.13989"
         x="-347.85663"
         height="128"
         width="25.941645"
         id="rect21397"
         style="opacity:0.49122805;fill:url(#linearGradient21407);fill-opacity:1;fill-rule:nonzero;stroke:none" />
    </g>
    <g
       inkscape:export-ydpi="90"
       inkscape:export-xdpi="90"
       inkscape:export-filename="D:\Users\Brian\workspace\MagneTank\assets\MagneTank\WoodenParticle.png"
       id="g3385"
       transform="translate(-437.50739,291.69952)">
      <rect
         style="opacity:0;fill:#000000;fill-opacity:1;fill-rule:nonzero;stroke:none"
         id="rect5266"
         width="128"
         height="16"
         x="437.50739"
         y="744.66266" />
      <g
         id="g3395">
        <g
           transform="matrix(0,-0.9375,1,0,-823.79213,182.13993)"
           id="g3382"
           clip-path="url(#clipPath3381)">
          <rect
             style="fill:#928851;fill-opacity:1;stroke:none"
             id="rect3384"
             width="128"
             height="64"
             x="-1389.2996"
             y="-638.63788"
             transform="matrix(0,-1,1,0,0,0)" />
          <rect
             transform="matrix(0,-1,-1,0,0,0)"
             style="opacity:0.47807019;fill:url(#linearGradient3369);fill-opacity:1;fill-rule:nonzero;stroke:none"
             id="rect3386"
             width="128"
             height="26.870041"
             x="-1389.2996"
             y="574.63788" />
          <rect
             y="-638.63788"
             x="-1389.2996"
             height="26.870041"
             width="128"
             id="rect3388"
             style="opacity:0.47807019;fill:url(#linearGradient3371);fill-opacity:1;fill-rule:nonzero;stroke:none"
             transform="matrix(0,-1,1,0,0,0)" />
          <g
             id="g3390"
             transform="translate(0,-210)"
             style="opacity:0.5482456">
            <path
               inkscape:connector-curvature="0"
               d="M -608.50787,1471.6511 -609.0235,1487.1777 -608.63952,1503.2183 -608.21085,1519.2589 -609.42861,1535.2995 -608.46678,1551.3401 -607.73649,1567.3808 -609.6159,1583.4214 -608.50787,1598.9479 M -611.94513,1471.6511 -611.00022,1487.1777 -612.0931,1503.2183 -610.40414,1519.2589 -611.41244,1535.2995 -612.93018,1551.3401 -613.14087,1567.3808 -612.63309,1583.4214 -611.94513,1598.9479 M -615.38238,1471.6511 -616.27969,1487.1777 -614.32941,1503.2183 -613.95645,1519.2589 -616.5299,1535.2995 -614.89642,1551.3401 -614.64694,1567.3808 -616.61996,1583.4214 -615.38238,1598.9479 M -618.81962,1471.6511 -619.60575,1487.1777 -618.49818,1503.2183 -619.73704,1519.2589 -617.64201,1535.2995 -619.54416,1551.3401 -618.09419,1567.3808 -617.44488,1583.4214 -618.81962,1598.9479 M -622.25687,1471.6511 -623.2886,1487.1777 -621.91771,1503.2183 -620.89433,1519.2589 -621.04085,1535.2995 -622.74869,1551.3401 -622.17324,1567.3808 -622.23138,1583.4214 -622.25687,1598.9479 M -625.69413,1471.6511 -625.75391,1487.1777 -625.45734,1503.2183 -624.60598,1519.2589 -626.8564,1535.2995 -624.66202,1551.3401 -624.39088,1567.3808 -627.11514,1583.4214 -625.69413,1598.9479 M -629.13137,1471.6511 -629.68989,1487.1777 -629.52225,1503.2183 -628.23769,1519.2589 -630.1558,1535.2995 -629.31458,1551.3401 -629.43018,1567.3808 -629.71591,1583.4214 -629.13137,1598.9479 M -632.56862,1471.6511 -634.11046,1487.1777 -634.11623,1503.2183 -631.60671,1519.2589 -633.68566,1535.2995 -631.38288,1551.3401 -631.43408,1567.3808 -633.76147,1583.4214 -632.56862,1598.9479 M -636.00588,1471.6511 -634.86707,1487.1777 -635.62971,1503.2183 -637.60379,1519.2589 -635.90817,1535.2995 -636.91706,1551.3401 -635.80499,1567.3808 -637.57869,1583.4214 -636.00588,1598.9479 M -577.15041,1471.6511 -577.66604,1487.1777 -577.28206,1503.2183 -576.85339,1519.2589 -578.07115,1535.2995 -577.10932,1551.3401 -576.37903,1567.3808 -578.25844,1583.4214 -577.15041,1598.9479 M -580.58767,1471.6511 -579.64276,1487.1777 -580.73564,1503.2183 -579.04668,1519.2589 -580.05498,1535.2995 -581.57272,1551.3401 -581.78341,1567.3808 -581.27563,1583.4214 -580.58767,1598.9479 M -584.02492,1471.6511 -584.92223,1487.1777 -582.97195,1503.2183 -582.59899,1519.2589 -585.17244,1535.2995 -583.53896,1551.3401 -583.28948,1567.3808 -585.2625,1583.4214 -584.02492,1598.9479 M -587.46216,1471.6511 -588.24829,1487.1777 -587.14072,1503.2183 -588.37958,1519.2589 -586.28455,1535.2995 -588.1867,1551.3401 -586.73673,1567.3808 -586.08742,1583.4214 -587.46216,1598.9479 M -590.89941,1471.6511 -591.93114,1487.1777 -590.56025,1503.2183 -589.53687,1519.2589 -589.68339,1535.2995 -591.39123,1551.3401 -590.81578,1567.3808 -590.87392,1583.4214 -590.89941,1598.9479 M -594.33667,1471.6511 -594.39645,1487.1777 -594.09988,1503.2183 -593.24852,1519.2589 -595.49894,1535.2995 -593.30456,1551.3401 -593.03342,1567.3808 -595.75768,1583.4214 -594.33667,1598.9479 M -597.77391,1471.6511 -598.33243,1487.1777 -598.16479,1503.2183 -596.88023,1519.2589 -598.79834,1535.2995 -597.95712,1551.3401 -598.07272,1567.3808 -598.35845,1583.4214 -597.77391,1598.9479 M -601.21116,1471.6511 -602.753,1487.1777 -602.75877,1503.2183 -600.24925,1519.2589 -602.3282,1535.2995 -600.02542,1551.3401 -600.07662,1567.3808 -602.40401,1583.4214 -601.21116,1598.9479 M -604.64842,1471.6511 -603.50961,1487.1777 -604.27225,1503.2183 -606.24633,1519.2589 -604.55071,1535.2995 -605.5596,1551.3401 -604.44753,1567.3808 -606.22123,1583.4214 -604.64842,1598.9479"
               style="fill:none;stroke:#cdbd6d;stroke-width:0.53738523;stroke-opacity:1"
               id="path3392" />
            <path
               inkscape:connector-curvature="0"
               d="M -636.83241,1598.9479 -636.31678,1583.4214 -636.70077,1567.3807 -637.12943,1551.3401 -635.91167,1535.2995 -636.8735,1519.2589 -637.60379,1503.2182 -635.72438,1487.1776 -636.83241,1471.6511 M -633.39516,1598.9479 -634.34007,1583.4214 -633.24718,1567.3807 -634.93615,1551.3401 -633.92785,1535.2995 -632.41011,1519.2589 -632.19941,1503.2182 -632.70718,1487.1776 -633.39516,1471.6511 M -629.95791,1598.9479 -629.0606,1583.4214 -631.01087,1567.3807 -631.38382,1551.3401 -628.81038,1535.2995 -630.44386,1519.2589 -630.69334,1503.2182 -628.72032,1487.1776 -629.95791,1471.6511 M -626.52066,1598.9479 -625.73453,1583.4214 -626.84211,1567.3807 -625.60324,1551.3401 -627.69828,1535.2995 -625.79612,1519.2589 -627.2461,1503.2182 -627.8954,1487.1776 -626.52066,1471.6511 M -623.08341,1598.9479 -622.05168,1583.4214 -623.42257,1567.3807 -624.44595,1551.3401 -624.29944,1535.2995 -622.5916,1519.2589 -623.16704,1503.2182 -623.1089,1487.1776 -623.08341,1471.6511 M -619.64616,1598.9479 -619.58637,1583.4214 -619.88293,1567.3807 -620.73431,1551.3401 -618.48388,1535.2995 -620.67827,1519.2589 -620.9494,1503.2182 -618.22515,1487.1776 -619.64616,1471.6511 M -616.20891,1598.9479 -615.6504,1583.4214 -615.81804,1567.3807 -617.1026,1551.3401 -615.18449,1535.2995 -616.0257,1519.2589 -615.91011,1503.2182 -615.62437,1487.1776 -616.20891,1471.6511 M -612.77166,1598.9479 -611.22982,1583.4214 -611.22405,1567.3807 -613.73358,1551.3401 -611.65462,1535.2995 -613.95741,1519.2589 -613.9062,1503.2182 -611.57881,1487.1776 -612.77166,1471.6511 M -609.33441,1598.9479 -610.47322,1583.4214 -609.71057,1567.3807 -607.73649,1551.3401 -609.43211,1535.2995 -608.42323,1519.2589 -609.53529,1503.2182 -607.76159,1487.1776 -609.33441,1471.6511 M -605.47495,1598.9479 -604.95932,1583.4214 -605.34331,1567.3807 -605.77197,1551.3401 -604.55421,1535.2995 -605.51604,1519.2589 -606.24633,1503.2182 -604.36692,1487.1776 -605.47495,1471.6511 M -602.0377,1598.9479 -602.98261,1583.4214 -601.88972,1567.3807 -603.57869,1551.3401 -602.57039,1535.2995 -601.05265,1519.2589 -600.84195,1503.2182 -601.34972,1487.1776 -602.0377,1471.6511 M -598.60045,1598.9479 -597.70314,1583.4214 -599.65341,1567.3807 -600.02636,1551.3401 -597.45292,1535.2995 -599.0864,1519.2589 -599.33588,1503.2182 -597.36286,1487.1776 -598.60045,1471.6511 M -595.1632,1598.9479 -594.37707,1583.4214 -595.48465,1567.3807 -594.24578,1551.3401 -596.34082,1535.2995 -594.43866,1519.2589 -595.88864,1503.2182 -596.53794,1487.1776 -595.1632,1471.6511 M -591.72595,1598.9479 -590.69422,1583.4214 -592.06511,1567.3807 -593.08849,1551.3401 -592.94198,1535.2995 -591.23414,1519.2589 -591.80958,1503.2182 -591.75144,1487.1776 -591.72595,1471.6511 M -588.2887,1598.9479 -588.22891,1583.4214 -588.52547,1567.3807 -589.37685,1551.3401 -587.12642,1535.2995 -589.32081,1519.2589 -589.59194,1503.2182 -586.86769,1487.1776 -588.2887,1471.6511 M -584.85145,1598.9479 -584.29294,1583.4214 -584.46058,1567.3807 -585.74514,1551.3401 -583.82703,1535.2995 -584.66824,1519.2589 -584.55265,1503.2182 -584.26691,1487.1776 -584.85145,1471.6511 M -581.4142,1598.9479 -579.87236,1583.4214 -579.86659,1567.3807 -582.37612,1551.3401 -580.29716,1535.2995 -582.59995,1519.2589 -582.54874,1503.2182 -580.22135,1487.1776 -581.4142,1471.6511 M -577.97695,1598.9479 -579.11576,1583.4214 -578.35311,1567.3807 -576.37903,1551.3401 -578.07465,1535.2995 -577.06577,1519.2589 -578.17783,1503.2182 -576.40413,1487.1776 -577.97695,1471.6511"
               style="fill:#000000;fill-opacity:0.46842107;stroke:#000000;stroke-width:0.53738523;stroke-opacity:1"
               id="path3394" />
          </g>
        </g>
      </g>
    </g>
  </g>
</svg>
