<?xml version="1.0" encoding="UTF-8" standalone="no"?>
<!-- Created with Inkscape (http://www.inkscape.org/) -->

<svg
   xmlns:dc="http://purl.org/dc/elements/1.1/"
   xmlns:cc="http://creativecommons.org/ns#"
   xmlns:rdf="http://www.w3.org/1999/02/22-rdf-syntax-ns#"
   xmlns:svg="http://www.w3.org/2000/svg"
   xmlns="http://www.w3.org/2000/svg"
   xmlns:xlink="http://www.w3.org/1999/xlink"
   xmlns:sodipodi="http://sodipodi.sourceforge.net/DTD/sodipodi-0.dtd"
   xmlns:inkscape="http://www.inkscape.org/namespaces/inkscape"
   width="96"
   height="32"
   id="svg4827"
   version="1.1"
   inkscape:version="0.48+devel r11664"
   sodipodi:docname="Gears.svg">
  <title
     id="title5585">MagneTank Gears</title>
  <defs
     id="defs4829">
    <linearGradient
       y2="594.49554"
       x2="877.91479"
       y1="594.49554"
       x1="566.37982"
       gradientTransform="translate(-2.14732,3.58094)"
       gradientUnits="userSpaceOnUse"
       id="linearGradient4551"
       xlink:href="#linearGradient4533"
       inkscape:collect="always" />
    <radialGradient
       r="267.29688"
       fy="577.12646"
       fx="-259.44516"
       cy="577.12646"
       cx="-259.44516"
       gradientTransform="translate(0,2.4829898e-6)"
       gradientUnits="userSpaceOnUse"
       id="radialGradient4549"
       xlink:href="#linearGradient4515"
       inkscape:collect="always" />
    <clipPath
       id="clipPath4529"
       clipPathUnits="userSpaceOnUse">
      <path
         style="fill:#000000;fill-opacity:1;stroke:none"
         d="M 1165.3445,-73.539182 1154.7007,-40.673323 1153.18,-30.639135 1152.5432,-7.5400899 1105.2431,-7.091675 1104.1652,-30.229043 1102.495,-40.241406 1091.2905,-72.920402 1055.9093,-69.837886 1050.4925,-35.706299 1050.5994,-25.558109 1053.5719,-2.6151227 1006.898,5.2373461 1002.1881,-17.418453 999.02446,-27.12653 982.84185,-57.619057 948.29936,-48.998563 948.33504,-14.485 950.08665,-4.4669454 956.54552,17.738925 911.66005,32.749716 903.52796,11.080889 898.84254,2.0840315 878.12442,-25.536833 845.42005,-11.635423 850.80249,22.434868 854.05315,32.067239 863.9512,53.041998 822.02194,74.884061 810.50924,54.777547 804.54039,46.590353 779.64808,22.520729 749.54277,41.347446 760.24184,74.236357 764.92729,83.23324 777.98466,102.30303 739.94669,130.46937 725.51314,112.36629 718.24377,105.23293 690.02684,85.428299 663.20582,108.73762 678.87734,139.52149 684.93331,147.633 700.84153,164.53089 667.64708,198.27042 650.58397,182.68191 642.25249,176.70079 611.25785,161.52661 588.41206,188.79447 608.70048,216.71234 615.96985,223.84573 634.28059,237.96786 606.80613,276.44242 587.49758,263.72242 578.41246,259.16058 545.42534,249.08071 527.10009,279.52755 551.55701,303.97555 559.81847,309.78818 580.13621,320.94326 559.01411,363.29757 537.93133,353.72449 528.24964,350.67465 493.99674,345.82182 480.73166,378.74936 508.67022,399.02517 517.75529,403.58704 539.53891,411.32827 525.33728,456.45718 503.03279,450.31507 492.99862,448.79437 458.44517,449.39971 450.45996,484.0056 481.25766,499.65669 490.93939,502.70652 513.70053,506.99971 506.66195,553.7753 483.69401,551.26679 473.47016,551.28664 439.44133,557.24442 436.95577,592.72623 469.82163,603.37009 479.93719,604.89648 503.03623,605.53325 503.48465,652.83336 480.34728,653.91128 470.33491,655.58149 437.65592,666.78596 440.73843,702.16719 474.87005,707.58399 485.01824,707.47709 507.96122,704.50463 515.7323,751.17278 493.0765,755.88271 483.44982,759.05203 452.95726,775.23462 461.5021,809.69002 496.09132,809.74142 506.10938,807.98982 528.31525,801.53094 543.33175,846.33505 521.65721,854.54851 512.66035,859.23396 485.03951,879.95205 498.94092,912.65642 533.01122,907.274 542.64359,904.02334 563.53695,894.11958 585.37901,936.04884 565.2725,947.56154 557.0853,953.53039 533.10279,978.34702 551.92377,1008.5337 584.73131,997.8288 593.80956,993.1492 612.87935,980.09184 641.04571,1018.1296 622.94267,1032.5632 615.81494,1039.7515 596.00465,1068.0496 619.31395,1094.8706 650.01644,1079.1934 658.20932,1073.1433 675.02584,1057.2292 708.76537,1090.4238 693.17686,1107.4867 687.28283,1115.7427 672.10293,1146.8186 699.28942,1169.6587 727.28866,1149.376 734.34071,1142.1008 748.54988,1123.7145 787.01874,1151.2703 774.29876,1170.579 769.7369,1179.664 759.65703,1212.6512 790.10387,1230.9764 814.4705,1206.5138 820.3645,1198.258 831.43821,1177.9346 873.79252,1199.0567 864.30081,1220.1451 861.16963,1229.821 856.31677,1264.074 889.32571,1277.3449 909.60152,1249.4064 914.08199,1240.3155 921.90457,1218.5377 967.03353,1232.7392 960.89139,1255.0437 959.37069,1265.0778 959.976,1299.6313 994.58193,1307.6165 1010.233,1276.8188 1013.2828,1267.1372 1017.576,1244.3758 1064.3516,1251.4147 1061.7617,1274.3768 1061.863,1284.6065 1067.8207,1318.6351 1103.3026,1321.1207 1113.9464,1288.255 1115.3914,1278.1336 1116.1096,1255.0404 1163.4097,1254.5917 1164.4876,1277.7293 1166.1578,1287.7416 1177.3623,1320.4205 1212.7435,1317.338 1218.1603,1283.2064 1218.0534,1273.0583 1215.081,1250.1153 1261.7491,1242.3443 1266.3777,1264.9943 1269.6283,1274.6268 1285.811,1305.1192 1320.2664,1296.5744 1320.2364,1261.9793 1318.5662,1251.9671 1312.0259,1229.7555 1356.9114,1214.7447 1365.0435,1236.4136 1369.7289,1245.4104 1390.5284,1273.037 1423.2327,1259.1356 1417.769,1225.0596 1414.5997,1215.433 1404.6959,1194.5395 1446.6308,1172.6161 1458.0565,1192.7981 1464.1067,1200.9912 1488.9233,1224.9737 1519.11,1206.1527 1508.4109,1173.2639 1503.6442,1164.2611 1490.5868,1145.1916 1528.6248,1117.0251 1543.1397,1135.134 1550.3277,1142.2615 1578.626,1162.0718 1605.447,1138.7625 1589.7754,1107.9788 1583.6382,1099.8613 1567.8056,1083.0505 1601,1049.3111 1618.0632,1064.8996 1626.3189,1070.7935 1657.395,1085.9735 1680.2408,1058.7056 1659.871,1030.7821 1652.5959,1023.7301 1634.2909,1009.5266 1661.7653,971.05203 1681.1552,983.7777 1690.2403,988.33957 1723.2275,998.41944 1741.5527,967.9726 1717.0901,943.60597 1708.8343,937.71197 1688.5166,926.55689 1709.633,884.28397 1730.7215,893.77566 1740.3975,896.90686 1774.5747,901.67264 1787.9212,868.75078 1759.9826,848.47495 1750.8104,843.98879 1729.0325,836.16618 1743.3155,791.04294 1765.62,797.18508 1775.6542,798.7058 1810.2076,798.10047 1818.1929,763.49454 1787.3951,747.84349 1777.7134,744.79363 1754.9523,740.50044 1761.9909,693.72482 1784.9531,696.31472 1795.1013,696.20782 1829.1301,690.25004 1831.6156,654.7682 1798.7498,644.12437 1788.7099,642.68504 1765.6166,641.9669 1765.1681,594.66682 1788.3055,593.58889 1798.3179,591.91863 1830.9969,580.71419 1827.9144,545.33298 1793.7828,539.91616 1783.6346,540.02306 1760.6916,542.99554 1752.8391,496.3217 1775.4892,491.69311 1785.203,488.44814 1815.6956,472.2655 1807.0693,437.80441 1772.5558,437.84009 1762.5434,439.51033 1740.3319,446.05057 1725.3211,401.1651 1746.9956,392.95164 1755.9868,388.34759 1783.6133,367.54808 1769.7119,334.84376 1735.6416,340.22615 1726.0092,343.47681 1705.0345,353.37488 1683.1924,311.44562 1703.2932,300.01429 1711.4861,293.96407 1735.55,269.15313 1716.729,238.96645 1683.8401,249.66552 1674.8375,254.43234 1655.7678,267.48971 1627.6014,229.45174 1645.6288,214.93108 1652.8378,207.74882 1672.6482,179.45052 1649.3389,152.6295 1618.555,168.30102 1610.4435,174.35696 1593.5456,190.26518 1559.806,157.07073 1575.3946,140.00765 1581.37,131.75754 1596.5499,100.68151 1569.282,77.835737 1541.3584,98.205526 1534.225,105.4749 1520.1029,123.78564 1481.6284,96.311177 1494.354,76.92126 1498.8345,67.830448 1508.9958,34.849019 1478.5489,16.52379 1454.1009,40.980663 1448.2069,49.236436 1437.1332,69.559888 1394.7789,48.437816 1404.352,27.35498 1407.4018,17.673296 1412.249,-16.498207 1379.3271,-29.844691 1359.0513,-1.9061223 1354.4837,7.2603429 1346.7425,29.043956 1301.6193,14.760961 1307.7614,-7.5435619 1309.2821,-17.577723 1308.6768,-52.131149 1274.0709,-60.116365 1258.4198,-29.318665 1255.37,-19.636954 1251.0768,3.1241808 1204.3012,-3.9143694 1206.8097,-26.882339 1206.7841,-37.024786 1200.8264,-71.053621 1165.3445,-73.539182 z M 1081.9418,111.90117 A 41.773045,41.773045 0 0 1 1111.0176,126.45026 C 1220.7125,251.49085 1275.0741,353.92148 1293.8328,444.62226 1263.2792,417.35831 1227.0524,399.21961 1189.0319,390.33926 1164.0271,332.12009 1120.2772,263.66634 1048.1978,181.50351 A 41.773045,41.773045 0 0 1 1051.2615,122.59139 41.773045,41.773045 0 0 1 1081.9418,111.90117 z M 1429.9507,210.61748 A 41.773045,41.773045 0 0 1 1469.4839,255.66693 C 1458.6329,421.65004 1424.6402,532.45647 1373.7694,609.85601 1371.4433,568.9728 1358.6664,530.52479 1338.0613,497.36083 1361.5474,438.51265 1378.9975,359.22054 1386.1276,250.15482 A 41.773045,41.773045 0 0 1 1429.9507,210.61748 z M 766.16188,288.58688 C 932.14499,299.43788 1043.0231,333.43557 1120.4323,384.30705 1079.4963,386.62243 1041.0541,399.37047 1007.8558,420.00951 949.03164,396.5251 869.79688,379.079 760.73117,371.9489 A 41.773045,41.773045 0 1 1 766.16188,288.58688 z M 1144.8273,473.84739 C 1208.5954,478.31444 1260.1707,521.94944 1277.9175,579.58885 L 998.21315,559.99518 C 1023.8226,505.39291 1081.0592,469.38037 1144.8273,473.84739 z M 955.19858,464.24373 C 927.8897,494.82706 909.70923,531.05155 900.82849,569.1203 842.62752,594.10925 774.24266,637.79928 692.07986,709.87867 A 41.773045,41.773045 0 1 1 637.02658,647.05889 C 762.0672,537.36395 864.49046,483.00874 955.19858,464.24373 z M 1605.9454,526.92144 A 41.773045,41.773045 0 0 1 1631.5448,600.43554 C 1506.5043,710.13048 1404.155,764.49778 1313.4542,783.25641 1340.71,752.71165 1358.9355,716.46961 1367.8186,678.46122 1426.0219,653.43827 1494.4101,609.70087 1576.573,537.62148 A 41.773045,41.773045 0 0 1 1605.9454,526.92144 z M 894.8834,637.64416 C 897.19684,678.54572 909.90184,716.95436 930.51015,750.1336 907.03527,808.96672 889.65822,888.23523 882.52524,997.3453 A 41.773045,41.773045 0 1 1 799.1632,991.91459 C 810.0142,825.93148 844.01192,715.05336 894.8834,637.64416 z M 990.65388,667.90557 1270.3583,687.49927 C 1244.759,742.1264 1187.6052,778.2024 1123.8198,773.73413 1060.0344,769.26585 1008.3871,725.56823 990.65388,667.90557 z M 974.82006,802.87789 C 1005.3777,830.16379 1041.5003,848.34761 1079.5339,857.23657 1104.5359,915.43713 1148.3463,983.80026 1220.455,1065.9966 A 41.773045,41.773045 0 1 1 1157.6352,1121.0498 C 1047.9403,996.00945 993.58509,893.586 974.82006,802.87789 z M 1260.7099,827.56631 C 1319.5598,851.02836 1398.856,868.42117 1507.9216,875.55128 A 41.773045,41.773045 0 1 1 1502.4095,958.90758 C 1336.4264,948.05658 1225.62,914.06387 1148.2205,863.1931 1189.0917,860.86748 1227.5527,848.161 1260.7099,827.56631 z"
         id="path4531"
         inkscape:connector-curvature="0" />
    </clipPath>
    <clipPath
       id="clipPath4511"
       clipPathUnits="userSpaceOnUse">
      <path
         style="fill:#ba8143;fill-opacity:1;stroke:#000000;stroke-width:1"
         d="M 730.6673,310.25976 728.28462,323.71049 727.91123,327.83864 727.63651,337.41106 717.93231,336.96996 717.87108,327.39726 717.59086,323.23836 715.49813,309.59256 708.21683,310.42224 706.91339,324.46462 706.87095,328.69373 707.33799,338.21307 697.73294,340.84322 696.90831,331.42093 696.31872,327.40274 693.1947,314.56499 686.06759,317.69733 685.86176,331.96215 686.14198,336.12105 687.34417,345.38256 678.05949,351.02709 676.52628,342.00362 675.62399,338.19327 671.53512,326.51605 664.75183,331.85388 665.65864,346.03908 666.26485,350.06064 668.164,358.81925 659.42589,367.3206 657.20903,358.87051 656.02061,355.409 651.08657,345.18778 644.80512,352.59361 646.79472,366.28631 647.69868,370.0631 650.25324,378.1409 642.29127,389.27437 639.44558,381.64609 638.00095,378.60728 632.32981,370.03347 626.69326,379.33289 629.72913,392.25448 630.91754,395.71599 634.05605,402.86118 627.06651,416.39534 623.65183,409.7366 621.99755,407.19773 615.74393,400.53998 610.89868,411.49144 614.88109,423.28269 616.32572,426.32151 619.98832,432.38635 614.12263,447.97896 610.24703,442.48118 608.41468,440.48255 601.70661,435.86851 597.76581,448.22374 602.6233,458.63285 604.29422,461.1751 608.37119,466.00175 603.80073,483.24683 599.54235,479.02754 597.56186,477.64302 590.59389,475.21382 587.65739,488.65403 593.26862,497.41911 595.10264,499.38417 599.51584,502.8551 596.32717,521.36336 591.79741,518.54685 589.7353,517.78992 582.65711,517.5759 580.80647,531.8125 587.01681,538.66489 588.99897,540.01585 593.61703,542.07051 591.90172,561.35199 587.1987,559.99205 585.11982,559.90975 578.11435,561.94799 577.38789,576.54802 584.05268,581.3567 586.09817,582.11026 590.84127,582.66469 590.6227,602.2495 585.8961,602.37645 583.81875,602.9386 577.0573,607.1621 577.4684,621.85707 584.42635,624.48764 586.52186,624.57331 591.23866,623.63073 592.54189,643.01543 587.87318,644.67969 585.88218,645.86957 579.52112,652.17442 581.07318,666.55818 588.14135,666.97358 590.22037,666.37787 594.80774,663.98519 597.58796,682.71996 593.11686,685.81425 591.22885,687.63523 585.4445,695.85375 588.0877,709.5772 595.11642,707.74709 597.10908,706.52365 601.44895,702.69083 605.66133,720.32588 601.47435,724.79991 599.75918,727.19836 594.6946,737.15612 598.36417,749.83322 605.14885,745.81784 607.02023,743.99349 611.02275,738.83794 616.53934,754.90661 612.75956,760.64973 611.25384,763.56524 607.00555,775.01061 611.61338,786.38618 618.01598,780.25926 619.73115,777.86082 623.27323,771.4932 629.97769,785.6329 626.67831,792.52433 625.42031,795.86296 622.12141,808.48389 627.54783,818.26246 633.39035,810.22524 634.89607,807.30973 637.90118,799.91794 645.62726,811.75596 642.90313,819.57761 641.91281,823.27561 639.62657,836.8137 645.75021,844.73337 650.90622,834.96364 652.16589,831.59144 654.55915,823.32982 663.10236,832.58739 661.01171,841.18156 660.32736,845.14498 659.12203,859.24114 665.79991,865.13733 670.12467,853.84306 671.09835,850.14169 672.83481,841.23843 681.98896,847.67037 680.59339,856.81222 680.21833,860.97393 680.11396,875.22541 687.16647,878.99391 690.5618,866.46034 691.24783,862.46335 692.24927,853.13992 701.80318,856.60171 701.12933,866.09324 701.08856,870.2888 702.09849,884.42709 709.33276,885.8932 711.71544,872.44246 712.08882,868.31432 712.36354,858.7419 722.06775,859.183 722.13065,868.72213 722.40919,872.9146 724.50192,886.56039 731.78489,885.69716 733.08666,871.68834 733.12911,867.45923 732.66206,857.93989 742.26711,855.30973 743.09175,864.73203 743.68133,868.75022 746.80703,881.55441 753.93246,878.45563 754.13996,864.15724 753.85975,859.99834 752.65755,850.73684 761.94224,845.09231 763.47377,854.14934 764.37606,857.95969 768.46661,869.60334 775.24823,864.29908 774.34142,850.11388 773.7352,846.09232 771.83606,837.33371 780.57416,828.83236 782.79103,837.28245 783.97945,840.74396 788.91348,850.96518 795.19494,843.55935 793.20533,829.86664 792.30137,826.08986 789.74682,818.01206 797.71046,806.84503 800.55448,814.50687 801.99911,817.54568 807.67024,826.11949 813.3068,816.82007 810.27093,803.89848 809.08251,800.43697 805.94401,793.29178 812.93355,779.75762 816.34823,786.41636 818.00251,788.95523 824.25613,795.61298 829.10138,784.66151 825.11897,772.87026 823.67434,769.83145 820.01174,763.76661 825.87743,748.174 829.75303,753.67178 831.58537,755.67041 838.29345,760.28445 842.23592,747.89566 837.37675,737.52011 835.70584,734.97786 831.61223,730.14784 836.19933,712.90613 840.45938,717.09185 842.4382,718.50994 849.40616,720.93913 852.34433,707.46537 846.73144,698.73385 844.89742,696.76879 840.48589,693.2643 843.67289,674.7896 848.20264,677.60611 850.26475,678.36304 857.34294,678.57706 859.19359,664.34046 852.98325,657.48807 851.00276,656.10355 846.38303,654.08245 848.09834,634.80097 852.80136,636.16091 854.88024,636.24321 861.88571,634.20497 862.61216,619.60494 855.94737,614.79626 853.90189,614.0427 849.15879,613.48827 849.37735,593.90346 854.10563,593.74294 856.18131,593.21436 862.94275,588.99086 862.53165,574.29589 855.57371,571.66531 853.47819,571.57965 848.7614,572.52223 847.45984,553.10397 852.12688,551.47327 854.11788,550.28339 860.48061,543.94498 858.92687,529.59477 851.8587,529.17938 849.78135,529.74153 845.19231,532.16777 842.39547,513.42962 846.88319,510.33871 848.77121,508.51773 854.55723,500.26565 851.91235,486.57575 844.88364,488.40587 842.89097,489.62931 838.55111,493.46213 834.33872,475.82707 838.52571,471.35304 840.24088,468.9546 845.30545,458.99684 841.63589,446.31974 834.85121,450.33512 832.97982,452.15947 828.9773,457.31502 823.46071,441.24635 827.2405,435.50323 828.74622,432.58772 832.99451,421.14235 828.38668,409.76678 821.98408,415.8937 820.26891,418.29214 816.72849,424.6262 810.02237,410.52006 813.32175,403.62863 814.57975,400.29 817.87864,387.66907 812.45223,377.8905 806.60971,385.92771 805.10399,388.84323 802.09888,396.23502 794.3728,384.397 797.09693,376.57535 798.08724,372.87735 800.37348,359.33926 794.25151,351.38603 789.09383,361.18932 787.83416,364.56152 785.44257,372.78958 776.89937,363.53201 778.99001,354.93784 779.67437,350.97442 780.87802,336.91182 774.20182,330.98207 769.87539,342.30989 768.9017,346.01127 767.16524,354.91453 758.0111,348.48259 759.40667,339.34074 759.78172,335.17903 759.88777,320.89398 752.83359,317.15905 749.43825,329.69262 748.7539,333.65604 747.75078,343.01304 738.19688,339.55125 738.87072,330.05971 738.9115,325.86416 737.90156,311.72587 730.6673,310.25976 z M 731.72268,362.30941 C 793.37543,374.80409 839.09064,481.42636 837.37744,604.4898 L 743.76441,585.51798 C 741.23741,566.04338 732.95498,550.84944 722.44746,548.71996 721.05787,548.43835 719.68659,548.41851 718.33792,548.59905 L 679.681,375.49375 C 695.80893,363.57012 713.48402,358.61312 731.72268,362.30941 z M 664.07304,389.7222 702.7333,562.76038 C 698.79263,570.59538 696.14163,581.12729 695.54573,593.10357 694.95019,605.07243 696.49578,616.49853 699.58206,625.75532 L 644.66255,779.82841 C 615.87984,731.13917 599.14445,655.48942 603.17998,574.38452 607.21551,493.27962 631.06862,425.8796 664.07304,389.7222 z M 721.22668,573.25474 C 728.01554,574.63058 732.96421,586.8476 732.28248,600.54872 731.60075,614.24984 725.54727,624.23713 718.75841,622.86129 711.96956,621.48545 707.02089,609.26843 707.70261,595.56731 708.38434,581.86619 714.43783,571.87889 721.22668,573.25474 z M 742.07095,619.89016 835.66736,638.85862 C 825.22196,760.15512 769.9135,846.33486 708.26075,833.84018 690.02233,830.14394 673.18795,818.19669 658.55708,800.0359 L 713.49657,645.89905 C 714.80052,646.61719 716.14638,647.14801 717.53597,647.42962 728.05109,649.56064 737.68016,637.98438 742.07095,619.89016 z"
         id="path4513"
         inkscape:connector-curvature="0" />
    </clipPath>
    <linearGradient
       inkscape:collect="always"
       xlink:href="#linearGradient4533"
       id="linearGradient4473"
       gradientUnits="userSpaceOnUse"
       gradientTransform="translate(-2.14732,3.58094)"
       x1="566.37982"
       y1="594.49554"
       x2="877.91479"
       y2="594.49554" />
    <filter
       height="1.181753"
       y="-0.09087652"
       width="1.4025538"
       x="-0.2012769"
       id="filter4264-6"
       inkscape:collect="always"
       style="color-interpolation-filters:sRGB">
      <feGaussianBlur
         id="feGaussianBlur4266-0"
         stdDeviation="26.127"
         inkscape:collect="always" />
    </filter>
    <linearGradient
       id="linearGradient4323-4">
      <stop
         style="stop-color:#ebc378;stop-opacity:1;"
         offset="0"
         id="stop4325-6" />
      <stop
         id="stop4327-5"
         offset="0.25"
         style="stop-color:#d6bc8d;stop-opacity:1;" />
      <stop
         id="stop4329-9"
         offset="0.5"
         style="stop-color:#ece1c8;stop-opacity:1;" />
      <stop
         style="stop-color:#d6bc8d;stop-opacity:1;"
         offset="0.75"
         id="stop4331-7" />
      <stop
         style="stop-color:#ebc378;stop-opacity:1;"
         offset="1"
         id="stop4333-2" />
    </linearGradient>
    <linearGradient
       y2="594.49554"
       x2="877.91479"
       y1="594.49554"
       x1="566.37982"
       gradientTransform="translate(-2.14732,3.58094)"
       gradientUnits="userSpaceOnUse"
       id="linearGradient4368-3"
       xlink:href="#linearGradient4323-4"
       inkscape:collect="always" />
    <linearGradient
       inkscape:collect="always"
       xlink:href="#linearGradient4250-2"
       id="linearGradient4400"
       gradientUnits="userSpaceOnUse"
       gradientTransform="translate(-2.14732,3.58094)"
       x1="566.37982"
       y1="594.49554"
       x2="877.91479"
       y2="594.49554" />
    <clipPath
       id="clipPath4274-7"
       clipPathUnits="userSpaceOnUse">
      <path
         inkscape:connector-curvature="0"
         id="path4276-8"
         d="M 726.36334,330.95697 724.18262,343.54658 723.87106,347.39028 723.7406,356.23861 714.04972,356.41038 713.82887,347.54737 713.48668,343.71203 711.1911,331.194 703.94217,332.37479 702.83237,345.44925 702.85427,349.33662 703.46327,358.12517 693.9007,361.13314 692.93573,352.4546 692.28757,348.73582 688.97206,337.05534 681.89497,340.35751 681.90228,353.57829 682.26115,357.41581 683.58445,365.922 674.38828,371.67204 672.72218,363.37157 671.76222,359.92523 667.51748,349.34477 660.81699,354.66985 661.91974,367.72083 662.58574,371.41061 664.61366,379.44521 656.02317,387.81204 653.66444,380.11003 652.44153,376.97384 647.34158,367.75372 641.17358,374.96549 643.36562,387.56393 644.32557,391.01028 647.00078,398.31516 639.20753,409.10457 636.25038,402.17 634.76102,399.43749 628.97992,391.85112 623.48481,400.78 626.6956,412.57208 627.93635,415.67928 631.19564,422.15219 624.39474,435.07647 620.89884,429.10513 619.19188,426.814 612.84167,421.00137 608.16101,431.44661 612.31772,442.14084 613.80707,444.87336 617.55859,450.28299 611.9296,465.02107 607.97365,460.14854 606.11229,458.40108 599.35386,454.53988 595.59937,466.20286 600.61012,475.56792 602.30274,477.79451 606.46545,482.06758 602.13794,498.29184 597.81848,494.62477 595.83489,493.4565 588.81713,491.59757 586.09937,504.21081 591.82345,511.97767 593.6848,513.72514 598.14784,516.6905 595.23821,533.9776 590.66844,531.6248 588.61264,531.04228 581.5333,531.27416 579.89729,544.53031 586.20714,550.52562 588.19074,551.69389 592.85406,553.33844 591.41199,571.25632 586.7063,570.29541 584.61163,570.30301 577.63978,572.5852 577.13054,586.17688 583.86412,590.25412 585.9366,590.83882 590.66915,591.08274 590.76102,609.20154 586.02062,609.61445 583.96928,610.25424 577.27399,614.54623 577.90553,628.09938 584.89844,630.17434 586.97761,630.13339 591.67819,628.99476 593.27033,646.87148 588.62859,648.67567 586.65627,649.88971 580.40894,656.08862 582.15961,669.28712 589.24627,669.30681 591.29878,668.63584 595.84833,666.1617 598.92493,683.32438 594.48423,686.47063 592.64095,688.26544 586.98197,696.20172 589.8301,708.72947 596.81045,706.66768 598.78393,705.42248 603.06458,701.62874 607.5396,717.69018 603.42016,722.10024 601.74276,724.38667 596.82921,733.89294 600.68526,745.45626 607.40689,741.35564 609.26685,739.56307 613.17388,734.56131 618.94463,749.13209 615.23567,754.66102 613.77533,757.41456 609.71658,768.25446 614.49221,778.52853 620.78256,772.52321 622.46112,770.20565 625.9065,764.1096 632.81908,776.82513 629.6253,783.36123 628.41772,786.52379 625.30765,798.42775 630.87764,807.17688 636.61415,799.40738 638.05897,796.62053 640.97016,789.57747 648.85169,800.13302 646.24561,807.52941 645.31097,811.00951 643.2458,823.64558 649.48377,830.66525 654.47602,821.2946 655.68359,818.13213 657.95238,810.34703 666.62996,818.43807 664.68529,826.51623 664.04377,830.22268 663.04951,843.34365 669.81241,848.42718 673.96653,837.72506 674.88449,834.24269 676.48719,825.90049 685.73324,831.34051 684.47484,839.88448 684.16327,843.72817 684.28729,856.96423 691.37738,860.02305 694.58399,848.22567 695.20883,844.51703 696.08842,835.79804 705.67185,838.49435 705.14122,847.29022 705.16196,851.20881 706.38259,864.24385 713.65214,865.19597 715.83285,852.60641 716.12891,848.72931 716.27604,839.88321 725.96693,839.71134 726.18776,848.57446 726.52997,852.40975 728.82554,864.92777 736.07447,863.74698 737.18428,850.67251 737.16237,846.78516 736.55337,837.9966 746.11477,835.01985 747.06308,843.69616 747.72907,847.386 751.04459,859.06643 758.10383,855.79325 758.09769,842.54125 757.75549,838.70596 756.41552,830.19759 765.61169,824.44754 767.27779,832.74802 768.23775,836.19436 772.49916,846.77699 779.19965,841.45192 778.08023,828.39875 777.4309,824.7112 775.40181,816.70773 783.99347,808.30973 786.33437,816.04068 787.57394,819.1791 792.65839,828.36586 798.84306,821.15628 796.65102,808.55789 795.6744,805.10926 792.99919,797.80448 800.79244,787.01501 803.76627,793.95181 805.23895,796.6821 811.03673,804.27064 816.53184,795.34177 813.32104,783.54975 812.06363,780.44026 808.81984,774.00071 815.62074,761.07647 819.11664,767.04782 820.80809,769.30553 827.17498,775.1204 831.85563,764.67515 827.68226,753.97875 826.19174,751.2774 822.44139,745.8366 828.07037,731.09852 832.04299,735.97322 833.90435,737.72069 840.66278,741.58189 844.41727,729.91891 839.40536,720.58502 837.71391,718.32726 833.5512,714.05419 837.87754,697.86111 842.19816,701.497 844.18059,702.69644 851.18284,704.52202 853.91728,691.91096 848.1932,684.14409 846.31399,682.42562 841.85213,679.42909 844.77844,662.14416 849.3482,664.49697 851.40401,665.0795 858.48334,664.84762 860.11936,651.59146 853.8095,645.59616 851.82591,644.42788 847.16259,642.78333 848.60465,624.86544 853.30917,625.85753 855.38834,625.81658 862.36018,623.53439 862.86943,609.9427 856.13585,605.86547 854.07888,605.31412 849.34749,605.03903 849.25562,586.92024 853.99602,586.50733 856.04736,585.86752 862.74266,581.57554 862.11111,568.0224 855.1182,565.94743 853.03904,565.98838 848.33846,567.12702 846.72964,549.24812 851.37021,547.47509 853.36037,546.23207 859.60771,540.03314 857.84036,526.83246 850.7692,526.84613 848.71786,527.48593 844.16714,529.99124 841.09172,512.79739 845.53241,509.65114 847.37453,507.88751 853.03467,499.92004 850.18655,487.39231 843.2062,489.45409 841.23271,490.69929 836.93539,494.49085 832.46038,478.42941 836.57864,474.05052 838.25721,471.73292 843.18744,462.22883 839.33138,450.66551 832.59307,454.7639 830.74862,456.58988 826.84159,461.59164 821.07085,447.0208 824.76431,441.45851 826.24131,438.70727 830.30006,427.86731 825.52443,417.59324 819.21742,423.59638 817.55552,425.91617 814.09347,432.00998 807.18089,419.2945 810.37468,412.75831 811.59892,409.59802 814.70899,397.69402 809.12233,388.94271 803.40133,396.74557 801.93983,399.53018 799.04649,406.5443 791.16379,396.01992 793.77104,388.59241 794.689,385.11008 796.77084,372.4762 790.53287,365.45653 785.52395,374.82499 784.31638,377.98745 782.0476,385.77256 773.37002,377.68153 775.33135,369.60553 775.9562,365.89686 776.94929,352.80711 770.20424,347.6946 766.05011,358.39676 765.11431,361.90807 763.52828,370.25251 754.2834,364.78126 755.54181,356.23728 755.85337,352.39359 755.72935,339.15754 748.63927,336.09872 745.43266,347.8961 744.80781,351.60478 743.92822,360.32367 734.3448,357.62748 734.85874,348.82936 734.85351,344.94419 733.63288,331.90909 726.36334,330.95697 z M 709.27573,401.99183 A 8.5584905,16.0016 0 0 1 715.23279,407.56501 C 737.70717,455.46311 748.84481,494.70023 752.68809,529.44411 746.42825,519.00037 739.00608,512.05215 731.21642,508.65044 726.09342,486.34898 717.12991,460.12706 702.36224,428.65373 A 8.5584905,16.0016 0 0 1 702.98994,406.08683 8.5584905,16.0016 0 0 1 709.27573,401.99183 z M 780.57603,439.80614 A 8.5584905,16.0016 0 0 1 788.67562,457.0628 C 786.45246,520.64436 779.48802,563.08992 769.06558,592.73862 768.589,577.07788 765.97126,562.34997 761.74966,549.64617 766.56151,527.10376 770.13671,496.73009 771.59753,454.95133 A 8.5584905,16.0016 0 0 1 780.57603,439.80614 z M 644.57852,469.67313 C 678.58525,473.82972 701.30204,486.85289 717.16169,506.33974 708.77469,507.22667 700.89862,512.10994 694.09693,520.01594 682.045,511.01999 665.81133,504.33708 643.46587,501.60582 A 8.5584905,16.0016 0 1 1 644.57852,469.67313 z M 722.15975,540.6391 C 735.22461,542.35025 745.7914,559.06509 749.42737,581.14447 L 692.12134,573.63891 C 697.36823,552.72294 709.0949,538.92796 722.15975,540.6391 z M 683.30849,536.96032 C 677.71343,548.67558 673.9886,562.55175 672.16911,577.13438 660.24485,586.70666 646.23411,603.44258 629.40054,631.05334 A 8.5584905,16.0016 0 1 1 618.12119,606.98957 C 643.7396,564.96978 664.72415,544.14845 683.30849,536.96032 z M 816.63396,560.96967 A 8.5584905,16.0016 0 0 1 821.87878,589.13001 C 796.26038,631.1498 775.29099,651.97576 756.70815,659.16145 762.29234,647.46096 766.0264,633.57807 767.84637,619.01856 779.7711,609.43326 793.78253,592.67919 810.6161,565.06843 A 8.5584905,16.0016 0 0 1 816.63396,560.96967 z M 670.95107,603.38316 C 671.42505,619.05093 674.02806,633.76376 678.25031,646.47341 673.44075,669.01005 669.88053,699.37468 668.41912,741.17043 A 8.5584905,16.0016 0 1 1 651.33985,739.09014 C 653.56301,675.50858 660.52849,633.03556 670.95107,603.38316 z M 690.57259,614.97511 747.87862,622.48068 C 742.63383,643.40617 730.92411,657.22546 717.85572,655.51384 704.78733,653.80222 694.20579,637.06339 690.57259,614.97511 z M 687.32855,666.67766 C 693.58922,677.12981 700.99004,684.09531 708.78238,687.50032 713.90482,709.79465 722.88073,735.98186 737.65441,767.46804 A 8.5584905,16.0016 0 1 1 724.78385,788.55671 C 702.30948,740.65872 691.17314,701.42435 687.32855,666.67766 z M 745.90187,676.13482 C 757.95907,685.1222 774.20532,691.7847 796.55078,694.51596 A 8.5584905,16.0016 0 1 1 795.42145,726.44646 C 761.41472,722.28987 738.71262,709.26861 722.85495,689.78203 731.22868,688.89118 739.10858,684.02383 745.90187,676.13482 z"
         style="fill:#000000;fill-opacity:1;stroke:#000000;stroke-width:1" />
    </clipPath>
    <linearGradient
       id="linearGradient4250-2">
      <stop
         id="stop4252-3"
         offset="0"
         style="stop-color:#d6ae8d;stop-opacity:1;" />
      <stop
         style="stop-color:#d6ae8d;stop-opacity:1;"
         offset="0.25"
         id="stop4260-3" />
      <stop
         style="stop-color:#ecd8c8;stop-opacity:1;"
         offset="0.5"
         id="stop4258-7" />
      <stop
         id="stop4262-3"
         offset="0.75"
         style="stop-color:#d6ae8d;stop-opacity:1;" />
      <stop
         id="stop4254-5"
         offset="1"
         style="stop-color:#d6ae8d;stop-opacity:1;" />
    </linearGradient>
    <linearGradient
       y2="594.49554"
       x2="877.91479"
       y1="594.49554"
       x1="566.37982"
       gradientTransform="translate(-2.14732,3.58094)"
       gradientUnits="userSpaceOnUse"
       id="linearGradient4321-3"
       xlink:href="#linearGradient4250-2"
       inkscape:collect="always" />
    <linearGradient
       y2="594.49554"
       x2="877.91479"
       y1="594.49554"
       x1="566.37982"
       gradientTransform="translate(-2.14732,3.58094)"
       gradientUnits="userSpaceOnUse"
       id="linearGradient4368"
       xlink:href="#linearGradient4323"
       inkscape:collect="always" />
    <radialGradient
       r="267.82834"
       fy="282.50757"
       fx="26.646009"
       cy="282.50757"
       cx="26.646009"
       gradientTransform="translate(0,-5.8014447e-6)"
       gradientUnits="userSpaceOnUse"
       id="radialGradient4366"
       xlink:href="#linearGradient4335"
       inkscape:collect="always" />
    <radialGradient
       r="267.82834"
       fy="282.50757"
       fx="26.646009"
       cy="282.50757"
       cx="26.646009"
       gradientTransform="matrix(0.53485217,0,0,1.0794271,705.74835,293.13014)"
       gradientUnits="userSpaceOnUse"
       id="radialGradient4359"
       xlink:href="#linearGradient4335"
       inkscape:collect="always" />
    <clipPath
       id="clipPath4355"
       clipPathUnits="userSpaceOnUse">
      <path
         style="fill:url(#radialGradient4359);fill-opacity:1;stroke:#000000;stroke-width:1"
         d="M 715.74296,309.57212 714.07412,323.44683 713.90792,327.65539 714.12596,337.19196 704.46156,338.80608 703.89308,329.30967 703.3937,325.24494 700.61367,312.11648 693.43072,314.45988 692.84407,328.71739 693.0283,332.88579 693.97869,342.27088 684.54974,346.89881 683.25365,337.72226 682.47437,333.82475 678.68626,321.75781 671.78467,326.36645 672.30222,340.5988 672.80256,344.6972 674.47677,353.62771 665.53263,361.20708 663.53036,352.51688 662.44255,348.9588 657.78743,338.20751 651.29691,344.93138 652.94351,358.83165 653.73853,362.69357 656.08176,371.00684 647.85037,381.30881 645.20051,373.40233 643.83754,370.17985 638.40738,361.03776 632.52532,369.75288 635.20711,382.96017 636.3283,386.51443 639.26717,393.98236 631.92547,406.75017 628.69854,399.75446 627.11521,397.03024 621.03345,389.7197 615.90342,400.17312 619.57756,412.35448 620.95627,415.54136 624.45267,421.99939 618.17661,436.94258 614.44412,431.0184 612.6757,428.85597 606.09726,423.52815 601.84517,435.43516 606.43827,446.3625 608.02065,449.05303 611.96877,454.31057 606.9482,471.03573 602.81689,466.40734 600.88007,464.80479 593.97751,461.64266 590.69685,474.75603 596.065,484.07416 597.8501,486.23468 602.18035,490.19833 598.50497,508.32353 594.04348,505.05064 592.00596,504.034 584.94805,503.08579 582.73041,517.09095 588.75111,524.61121 590.68793,526.21376 595.24538,528.73236 593.03636,547.8045 588.3801,545.93916 586.31241,545.6355 579.25028,546.91767 578.15201,561.43652 584.66938,566.97404 586.70501,567.92333 591.42197,568.97083 590.69849,588.48092 585.9671,588.11079 583.88498,588.48451 577.01888,591.97412 577.06387,606.66606 583.93874,610.03408 586.00737,610.37143 590.73271,609.93137 591.54824,629.40026 586.84375,630.58124 584.81206,631.55732 578.32459,637.19967 579.46905,651.69806 586.53265,652.84834 588.61571,652.50831 593.2493,650.59215 595.55816,669.58587 590.99547,672.23719 589.06427,673.80993 583.0842,681.42133 585.36871,695.38365 592.42079,694.33913 594.45153,693.32937 598.89325,689.9486 602.63211,708.00138 598.34189,712.00673 596.56314,714.23772 591.23592,723.63257 594.56662,736.69794 601.4551,733.40848 603.38441,731.76839 607.5036,727.03933 612.59245,743.68733 608.67482,749.03524 607.09384,751.75036 602.5649,762.74307 606.86653,774.61603 613.40974,769.17001 615.1885,766.93902 618.88883,761.00785 625.21524,775.82473 621.74889,782.33725 620.38236,785.5346 616.77576,797.77308 621.93965,808.16199 627.9912,800.71133 629.55456,797.96444 632.75449,790.90809 640.15878,803.57429 637.22336,811.10712 636.13425,814.64434 633.52867,827.95065 639.4276,836.49845 644.82631,827.26435 646.15946,824.07083 648.78029,816.06723 657.06849,826.23332 654.75845,834.57295 653.98108,838.47988 652.39757,852.41238 658.91094,858.99775 663.5123,848.19946 664.59951,844.59489 666.5468,835.8576 675.52777,843.27518 673.88843,852.24748 673.41901,856.38942 672.94823,870.59987 679.872,875.11103 683.59826,862.96019 684.39232,859.05134 685.64027,849.8536 695.09044,854.31179 694.16618,863.70895 694.01571,867.88192 694.65008,882.10089 701.86175,884.34915 704.57125,871.16608 705.05925,867.08958 705.57829,857.56992 715.24546,859.03004 715.07876,868.5769 715.24724,872.7809 716.97634,886.63794 724.27282,886.54522 725.94166,872.67051 726.09213,868.49754 725.87314,858.92729 735.53753,857.31316 736.10602,866.80959 736.6054,870.87431 739.38543,884.00277 746.56838,881.65937 747.15503,867.40186 746.98749,863.23154 746.02041,853.84837 755.44936,849.22044 756.72876,858.3989 757.54142,862.29258 761.31378,874.39511 768.21538,869.78647 767.71451,855.55221 767.19749,851.45572 765.52233,842.49154 774.46647,834.91217 776.46874,843.60237 777.55655,847.16045 782.22835,857.90982 788.70219,851.18787 787.05559,837.2876 786.24388,833.42759 783.91734,825.11241 792.16542,814.80852 794.79954,822.7506 796.16156,825.93939 801.60841,835.07958 807.47473,826.40005 804.77625,813.19467 803.68748,809.60291 800.73193,802.13689 808.07364,789.36909 811.30057,796.36479 812.88389,799.08901 818.96565,806.39955 824.09568,795.94613 820.40486,783.76668 819.04378,780.61156 815.54739,774.15353 821.82344,759.21035 825.55593,765.13454 827.32435,767.29696 833.90184,772.59109 838.13725,760.686 833.56178,749.79044 831.97845,747.06622 828.01365,741.8106 833.05091,725.08353 837.18316,729.74561 839.11903,731.31447 846.02159,734.4766 849.30225,721.36323 843.93505,712.07877 842.149,709.88458 837.83544,705.91901 841.49509,687.8294 845.95657,691.10229 847.99315,692.08526 855.03437,693.03538 857.26869,679.0283 851.24799,671.50804 849.31212,669.93917 844.75467,667.42059 846.96368,648.34845 851.61995,650.21377 853.68764,650.51745 860.74977,649.23526 861.86378,634.68083 855.33067,629.17889 853.29503,628.22961 848.59476,627.18019 849.31825,607.67011 854.04774,607.97288 856.11506,607.66843 862.98118,604.17881 862.95192,589.45129 856.06036,586.08518 853.99267,585.78151 849.25065,586.22348 848.45086,566.719 853.17299,565.56978 855.18704,564.56193 861.6912,558.91767 860.51337,544.4231 853.46645,543.27091 851.40008,543.60903 846.7498,545.5271 844.44094,526.53339 849.00457,523.91574 850.91814,522.31125 856.9149,514.69793 854.63039,500.7356 847.57831,501.78012 845.54851,502.82357 841.10585,506.17066 837.36699,488.11788 841.67295,484.07693 843.43596,481.88153 848.76318,472.48668 845.43248,459.42132 838.544,462.71079 836.63138,464.34896 832.4955,469.07992 827.38996,452.43383 831.32523,447.11769 832.90527,444.36889 837.45088,433.37428 833.13352,421.5369 826.58936,426.94925 824.82729,429.17833 821.1279,435.14317 814.8015,420.32628 818.25116,413.81568 819.61769,410.61832 823.24003,398.34426 818.0604,387.99093 812.00884,395.44159 810.44549,398.18848 807.24556,405.24484 799.84127,392.57864 802.77669,385.0458 803.84816,381.47682 806.48807,368.20036 800.57151,359.62079 795.17279,368.8549 793.84059,372.0821 791.21976,380.0857 782.94824,369.9177 785.24065,361.5463 786.01896,357.67304 787.60248,343.74054 781.10485,337.11959 776.4868,347.91978 775.40053,351.55803 773.43561,360.26356 764.47133,352.84407 766.09398,343.87368 766.58104,339.7635 767.05087,325.51938 760.11136,321.04381 756.40179,333.19273 755.60773,337.10158 754.35978,346.29933 744.9096,341.84114 745.83387,332.44397 745.98339,328.23733 745.34902,314.01836 738.15404,311.76818 735.41116,324.95508 734.93985,329.02967 734.42081,338.54933 724.75364,337.08921 724.92034,327.54234 724.7528,323.37202 723.02371,309.51499 715.74296,309.57212 z M 713.2768,397.46286 C 721.42061,396.3357 729.49989,397.25553 737.35696,400.07584 L 718.41791,519.5185 C 714.88726,519.81116 711.33439,521.02498 707.81196,523.36905 704.29106,525.71211 701.02854,528.9948 698.1051,532.99543 L 647.71399,459.7765 C 658.68451,436.37309 672.5993,417.95355 688.82298,407.15716 696.9335,401.75985 705.13299,398.59002 713.2768,397.46286 z M 762.83248,416.58409 C 786.51371,439.35832 805.73534,480.87223 814.59889,535.12196 816.49965,546.75569 817.83,558.48436 818.64931,570.20117 L 756.52146,570.73132 C 753.9094,556.50264 749.46542,544.63466 743.89058,535.92571 L 762.83248,416.58409 z M 632.07178,503.59906 682.47863,576.78239 C 680.56393,590.47541 680.47757,605.37722 682.57134,619.9508 L 632.49135,694.07258 C 629.69675,683.67027 627.31767,672.62912 625.4169,660.99538 616.5547,606.75389 619.75188,550.32992 632.07178,503.59906 z M 718.82213,556.5021 C 719.95833,556.37191 721.07851,556.42587 722.17474,556.65854 L 733.94634,628.76144 C 730.56038,635.03472 726.10822,639.08593 721.16123,639.65274 709.78591,640.95611 700.04494,623.37741 699.39913,600.41998 698.75332,577.46256 707.44681,557.80546 718.82213,556.5021 z M 756.66798,624.73901 818.7615,624.17902 C 814.47545,689.77699 794.24007,748.78439 763.61306,778.7864 L 744.15975,659.75588 C 749.90667,650.58419 754.22364,638.39498 756.66798,624.73901 z M 698.39497,663.51292 C 704.39042,671.56409 711.44061,676.21976 718.7711,676.68623 L 738.20678,795.68498 C 704.74434,808.33263 671.09275,785.18819 648.31404,737.60102 L 698.39497,663.51292 z"
         id="path4357"
         inkscape:connector-curvature="0" />
    </clipPath>
    <linearGradient
       y2="594.49554"
       x2="877.91479"
       y1="594.49554"
       x1="566.37982"
       gradientTransform="translate(-2.14732,3.58094)"
       gradientUnits="userSpaceOnUse"
       id="linearGradient4321"
       xlink:href="#linearGradient4250"
       inkscape:collect="always" />
    <radialGradient
       r="267.61951"
       fy="725.24884"
       fx="-244.80023"
       cy="725.24884"
       cx="-244.80023"
       gradientTransform="translate(964.80023,-127.17238)"
       gradientUnits="userSpaceOnUse"
       id="radialGradient4319"
       xlink:href="#linearGradient4201-6"
       inkscape:collect="always" />
    <clipPath
       id="clipPath4310"
       clipPathUnits="userSpaceOnUse">
      <path
         inkscape:connector-curvature="0"
         id="path4312"
         d="M 1168.3764,-141.6093 1156.6935,-105.53523 1155.0244,-94.521554 1154.3255,-69.167687 1102.4082,-68.6755 1101.225,-94.071431 1099.3917,-105.06115 1087.0936,-140.93012 1048.2586,-137.54671 1042.313,-100.08335 1042.4303,-88.944542 1045.693,-63.761967 994.46302,-55.142977 989.29332,-80.01033 985.8209,-90.666065 968.05861,-124.13513 930.14425,-114.67314 930.18342,-76.790526 932.10601,-65.794556 939.19537,-41.421052 889.92838,-24.944977 881.00248,-48.729014 875.85968,-58.604103 853.11916,-88.921189 817.22234,-73.662787 823.13019,-36.266712 826.69817,-25.694074 837.56242,-2.6718564 791.54022,21.302328 778.9037,-0.76689149 772.3522,-9.7532815 745.03001,-36.17247 711.98597,-15.507976 723.72943,20.591398 728.87225,30.466515 743.20422,51.397805 701.45316,82.313612 685.61068,62.443403 677.6317,54.613712 646.66036,32.875845 617.2212,58.460519 634.42251,92.249361 641.06962,101.15268 658.53073,119.70006 622.09599,156.73309 603.36727,139.62291 594.22251,133.05794 560.20231,116.40252 535.12642,146.33215 557.3953,176.97523 565.37428,184.80495 585.47243,200.30562 555.31603,242.53588 534.12267,228.57421 524.15071,223.56706 487.94354,212.50324 467.82945,245.92216 494.67375,272.75666 503.74166,279.1367 526.04272,291.38069 502.85878,337.86943 479.71799,327.36186 469.09123,324.01432 431.49472,318.68777 416.93475,354.82955 447.60056,377.08459 457.57247,382.09177 481.4825,390.58866 465.89458,440.12285 441.41282,433.38117 430.39917,431.71203 392.47277,432.37645 383.70807,470.36042 417.5121,487.53929 428.13892,490.88683 453.1219,495.5991 445.39625,546.94071 420.18628,544.18734 408.96443,544.20911 371.61386,550.74847 368.88567,589.69385 404.95974,601.37671 416.06273,603.0521 441.4166,603.75103 441.90879,655.66836 416.51286,656.8515 405.52313,658.68475 369.65416,670.98295 373.03758,709.81793 410.50096,715.76349 421.63977,715.64615 446.82235,712.38354 455.352,763.60722 430.48464,768.77691 419.91825,772.25561 386.44916,790.01787 395.8281,827.83664 433.79376,827.89306 444.78973,825.97047 469.16323,818.88111 485.64558,868.05879 461.85527,877.074 451.98018,882.21683 421.66313,904.95732 436.92153,940.85414 474.3176,934.94632 484.89024,931.37834 507.82312,920.50782 531.7973,966.53002 509.72808,979.16653 500.74169,985.71804 474.41812,1012.9572 495.07631,1046.0905 531.08637,1034.3407 541.0508,1029.2043 561.98209,1014.8723 592.89793,1056.6232 573.02775,1072.4657 565.20424,1080.3556 543.46016,1111.4161 569.0448,1140.8553 602.74433,1123.6477 611.73697,1117.007 630.19503,1099.5395 667.22806,1135.9744 650.11788,1154.7028 643.6485,1163.7648 626.9868,1197.8742 656.82712,1222.9438 687.55951,1200.6812 695.29995,1192.6958 710.89615,1172.5147 753.12017,1202.7604 739.15852,1223.9539 734.15135,1233.9258 723.08753,1270.133 756.50645,1290.247 783.25163,1263.3965 789.72098,1254.3348 801.87566,1232.0275 848.3644,1255.2115 837.94615,1278.3585 834.50932,1288.9789 829.18274,1326.5755 865.41387,1341.1418 887.66891,1310.4761 892.58674,1300.4978 901.17292,1276.5942 950.70716,1292.1819 943.96546,1316.6637 942.29632,1327.6773 942.96071,1365.6037 980.94471,1374.3684 998.1236,1340.5644 1001.4711,1329.9377 1006.1834,1304.9544 1057.525,1312.6804 1054.6823,1337.884 1054.7934,1349.1122 1061.3328,1386.4626 1100.2782,1389.1908 1111.961,1353.1169 1113.5471,1342.0075 1114.3353,1316.66 1166.2527,1316.1676 1167.4358,1341.5638 1169.2691,1352.5534 1181.5672,1388.4223 1220.4022,1385.0389 1226.3478,1347.5755 1226.2304,1336.4368 1222.9678,1311.2542 1274.1915,1302.7246 1279.2719,1327.5856 1282.8399,1338.1584 1300.6022,1371.6273 1338.421,1362.2484 1338.3881,1324.2763 1336.5548,1313.2868 1329.3761,1288.907 1378.6431,1272.4309 1387.569,1296.215 1392.7118,1306.0901 1415.5416,1336.4134 1451.4384,1321.155 1445.4413,1283.7526 1441.9626,1273.1864 1431.0921,1250.2534 1477.1205,1226.1899 1489.6615,1248.342 1496.3023,1257.3348 1523.5414,1283.6584 1556.6748,1263.0002 1544.9313,1226.9009 1539.6992,1217.0193 1525.3672,1196.0883 1567.1183,1165.1723 1583.0501,1185.0489 1590.9398,1192.8722 1622.0004,1214.6163 1651.4396,1189.0317 1634.2383,1155.243 1627.5019,1146.3331 1610.1238,1127.8813 1646.5586,1090.8484 1665.2873,1107.9586 1674.3489,1114.4278 1708.4585,1131.0897 1733.5344,1101.16 1711.1762,1070.5107 1703.191,1062.7703 1683.0991,1047.1803 1713.2554,1004.9501 1734.5381,1018.918 1744.5101,1023.9251 1780.7173,1034.989 1800.8313,1001.57 1773.9808,974.82485 1764.9191,968.3555 1742.6181,956.11151 1765.7957,909.71211 1788.9428,920.13033 1799.5633,923.56719 1837.0768,928.79818 1851.7261,892.66264 1821.0602,870.40757 1810.9927,865.4835 1787.089,856.89729 1802.7662,807.36932 1827.248,814.11102 1838.2616,815.78019 1876.188,815.11577 1884.9527,777.13177 1851.1487,759.95293 1840.5219,756.60536 1815.5389,751.8931 1823.2645,700.55145 1848.4682,703.39417 1859.6071,703.27683 1896.9576,696.73748 1899.6858,657.79206 1863.6117,646.10923 1852.5918,644.5294 1827.2442,643.74117 1826.752,591.82387 1852.1479,590.64072 1863.1377,588.80742 1899.0066,576.50925 1895.6232,537.67429 1858.1598,531.7287 1847.0211,531.84604 1821.8384,535.10868 1813.2195,483.87876 1838.0806,478.79835 1848.7425,475.23662 1882.2116,457.4743 1872.7434,419.64928 1834.8608,419.68845 1823.871,421.52172 1799.4913,428.7004 1783.0152,379.43341 1806.8055,370.41819 1816.6744,365.36471 1846.9977,342.53485 1831.7393,306.63808 1794.3432,312.54588 1783.7706,316.11385 1760.7483,326.97813 1736.7742,280.95593 1758.8371,268.40873 1767.8298,261.76791 1794.2427,234.53504 1773.5845,201.40168 1737.4851,213.14515 1727.6037,218.37728 1706.6724,232.70925 1675.7566,190.95819 1695.5437,175.02009 1703.4565,167.13673 1725.2006,136.07608 1699.616,106.63692 1665.8271,123.83822 1656.9238,130.48531 1638.3764,147.94642 1601.3434,111.51168 1618.4536,92.782982 1625.0123,83.727536 1641.674,49.618 1611.7443,24.542132 1581.095,46.900326 1573.2653,54.879304 1557.7646,74.977454 1515.5344,44.82106 1529.5023,23.538388 1534.4201,13.560174 1545.5732,-22.640749 1512.1543,-42.754802 1485.3198,-15.910563 1478.8505,-6.8488992 1466.6958,15.458434 1420.2071,-7.7254776 1430.7146,-30.866322 1434.0622,-41.493088 1439.3825,-79.000254 1403.2469,-93.64956 1380.9919,-62.983757 1375.9785,-52.922504 1367.4816,-29.012476 1317.9536,-44.689711 1324.6953,-69.171498 1326.3645,-80.185147 1325.7001,-118.11152 1287.7161,-126.87621 1270.5372,-93.072185 1267.1897,-82.445391 1262.4774,-57.46242 1211.1358,-65.18804 1213.8891,-90.398037 1213.8611,-101.53054 1207.3218,-138.88111 1168.3764,-141.6093 z M 1076.8323,61.932878 A 45.850736,45.850736 0 0 1 1108.7463,77.902181 C 1229.1491,215.14865 1288.8172,327.57808 1309.407,427.13266 1275.8709,397.20733 1236.1078,377.29801 1194.376,367.5508 1166.9303,303.64854 1118.9098,228.51266 1039.7943,138.32947 A 45.850736,45.850736 0 0 1 1043.1571,73.666627 45.850736,45.850736 0 0 1 1076.8323,61.932878 z M 1458.8121,170.28541 A 45.850736,45.850736 0 0 1 1502.2044,219.73238 C 1490.2942,401.91799 1452.9833,523.54084 1397.1468,608.49576 1394.5936,563.62172 1380.5694,521.4206 1357.9529,485.01933 1383.7316,420.42666 1402.8851,333.39441 1410.7113,213.6822 A 45.850736,45.850736 0 0 1 1458.8121,170.28541 z M 730.22735,255.86582 C 912.41296,267.77605 1034.1145,305.09244 1119.08,360.92976 1074.148,363.47115 1031.9532,377.4636 995.5143,400.11733 930.94802,374.34047 843.97873,355.19136 724.26652,347.36525 A 45.850736,45.850736 0 1 1 730.22735,255.86582 z M 1145.8563,459.21061 C 1215.8492,464.11371 1272.4591,512.00815 1291.9382,575.27406 L 984.9304,553.76775 C 1013.0398,493.83545 1075.8635,454.30753 1145.8563,459.21061 z M 937.71694,448.66949 C 907.7423,482.23821 887.78713,521.99877 878.0395,563.78362 814.15721,591.21188 739.09695,639.16672 648.91379,718.28216 A 45.850736,45.850736 0 1 1 588.48647,649.33021 C 725.73297,528.92736 838.15432,469.26624 937.71694,448.66949 z M 1651.9867,517.46551 A 45.850736,45.850736 0 0 1 1680.085,598.15571 C 1542.8385,718.55856 1430.4984,778.23294 1330.9438,798.82271 1360.8602,765.2963 1380.8648,725.51649 1390.615,683.79789 1454.4999,656.33232 1529.5638,608.32547 1619.747,529.21003 A 45.850736,45.850736 0 0 1 1651.9867,517.46551 z M 871.51407,638.99646 C 874.05335,683.89065 887.99854,726.04856 910.61854,762.46659 884.85215,827.04273 865.77883,914.04907 857.94957,1033.81 A 45.850736,45.850736 0 1 1 766.45011,1027.8491 C 778.36034,845.66352 815.67675,723.96199 871.51407,638.99646 z M 976.63322,672.21185 1283.6411,693.7182 C 1255.5429,753.67777 1192.81,793.27535 1122.7982,788.3709 1052.7864,783.46645 996.09746,735.50327 976.63322,672.21185 z M 959.25377,820.35954 C 992.79433,850.30896 1032.443,870.2678 1074.1892,880.02446 1101.6319,943.90629 1149.7189,1018.9427 1228.8665,1109.1627 A 45.850736,45.850736 0 1 1 1159.9145,1169.5899 C 1039.5117,1032.3437 979.85056,919.92216 959.25377,820.35954 z M 1273.0509,847.45794 C 1337.6454,873.21023 1424.6821,892.30086 1544.3943,900.12697 A 45.850736,45.850736 0 1 1 1538.3441,991.62013 C 1356.1585,979.7099 1234.5356,942.39898 1149.5807,886.56244 1194.4416,884.00981 1236.657,870.06298 1273.0509,847.45794 z"
         style="fill:#000000;fill-opacity:1;stroke:none" />
    </clipPath>
    <filter
       id="filter4304"
       inkscape:collect="always"
       style="color-interpolation-filters:sRGB">
      <feGaussianBlur
         id="feGaussianBlur4306"
         stdDeviation="7.9554462"
         inkscape:collect="always" />
    </filter>
    <clipPath
       id="clipPath4274"
       clipPathUnits="userSpaceOnUse">
      <path
         inkscape:connector-curvature="0"
         id="path4276"
         d="M 726.36334,330.95697 724.18262,343.54658 723.87106,347.39028 723.7406,356.23861 714.04972,356.41038 713.82887,347.54737 713.48668,343.71203 711.1911,331.194 703.94217,332.37479 702.83237,345.44925 702.85427,349.33662 703.46327,358.12517 693.9007,361.13314 692.93573,352.4546 692.28757,348.73582 688.97206,337.05534 681.89497,340.35751 681.90228,353.57829 682.26115,357.41581 683.58445,365.922 674.38828,371.67204 672.72218,363.37157 671.76222,359.92523 667.51748,349.34477 660.81699,354.66985 661.91974,367.72083 662.58574,371.41061 664.61366,379.44521 656.02317,387.81204 653.66444,380.11003 652.44153,376.97384 647.34158,367.75372 641.17358,374.96549 643.36562,387.56393 644.32557,391.01028 647.00078,398.31516 639.20753,409.10457 636.25038,402.17 634.76102,399.43749 628.97992,391.85112 623.48481,400.78 626.6956,412.57208 627.93635,415.67928 631.19564,422.15219 624.39474,435.07647 620.89884,429.10513 619.19188,426.814 612.84167,421.00137 608.16101,431.44661 612.31772,442.14084 613.80707,444.87336 617.55859,450.28299 611.9296,465.02107 607.97365,460.14854 606.11229,458.40108 599.35386,454.53988 595.59937,466.20286 600.61012,475.56792 602.30274,477.79451 606.46545,482.06758 602.13794,498.29184 597.81848,494.62477 595.83489,493.4565 588.81713,491.59757 586.09937,504.21081 591.82345,511.97767 593.6848,513.72514 598.14784,516.6905 595.23821,533.9776 590.66844,531.6248 588.61264,531.04228 581.5333,531.27416 579.89729,544.53031 586.20714,550.52562 588.19074,551.69389 592.85406,553.33844 591.41199,571.25632 586.7063,570.29541 584.61163,570.30301 577.63978,572.5852 577.13054,586.17688 583.86412,590.25412 585.9366,590.83882 590.66915,591.08274 590.76102,609.20154 586.02062,609.61445 583.96928,610.25424 577.27399,614.54623 577.90553,628.09938 584.89844,630.17434 586.97761,630.13339 591.67819,628.99476 593.27033,646.87148 588.62859,648.67567 586.65627,649.88971 580.40894,656.08862 582.15961,669.28712 589.24627,669.30681 591.29878,668.63584 595.84833,666.1617 598.92493,683.32438 594.48423,686.47063 592.64095,688.26544 586.98197,696.20172 589.8301,708.72947 596.81045,706.66768 598.78393,705.42248 603.06458,701.62874 607.5396,717.69018 603.42016,722.10024 601.74276,724.38667 596.82921,733.89294 600.68526,745.45626 607.40689,741.35564 609.26685,739.56307 613.17388,734.56131 618.94463,749.13209 615.23567,754.66102 613.77533,757.41456 609.71658,768.25446 614.49221,778.52853 620.78256,772.52321 622.46112,770.20565 625.9065,764.1096 632.81908,776.82513 629.6253,783.36123 628.41772,786.52379 625.30765,798.42775 630.87764,807.17688 636.61415,799.40738 638.05897,796.62053 640.97016,789.57747 648.85169,800.13302 646.24561,807.52941 645.31097,811.00951 643.2458,823.64558 649.48377,830.66525 654.47602,821.2946 655.68359,818.13213 657.95238,810.34703 666.62996,818.43807 664.68529,826.51623 664.04377,830.22268 663.04951,843.34365 669.81241,848.42718 673.96653,837.72506 674.88449,834.24269 676.48719,825.90049 685.73324,831.34051 684.47484,839.88448 684.16327,843.72817 684.28729,856.96423 691.37738,860.02305 694.58399,848.22567 695.20883,844.51703 696.08842,835.79804 705.67185,838.49435 705.14122,847.29022 705.16196,851.20881 706.38259,864.24385 713.65214,865.19597 715.83285,852.60641 716.12891,848.72931 716.27604,839.88321 725.96693,839.71134 726.18776,848.57446 726.52997,852.40975 728.82554,864.92777 736.07447,863.74698 737.18428,850.67251 737.16237,846.78516 736.55337,837.9966 746.11477,835.01985 747.06308,843.69616 747.72907,847.386 751.04459,859.06643 758.10383,855.79325 758.09769,842.54125 757.75549,838.70596 756.41552,830.19759 765.61169,824.44754 767.27779,832.74802 768.23775,836.19436 772.49916,846.77699 779.19965,841.45192 778.08023,828.39875 777.4309,824.7112 775.40181,816.70773 783.99347,808.30973 786.33437,816.04068 787.57394,819.1791 792.65839,828.36586 798.84306,821.15628 796.65102,808.55789 795.6744,805.10926 792.99919,797.80448 800.79244,787.01501 803.76627,793.95181 805.23895,796.6821 811.03673,804.27064 816.53184,795.34177 813.32104,783.54975 812.06363,780.44026 808.81984,774.00071 815.62074,761.07647 819.11664,767.04782 820.80809,769.30553 827.17498,775.1204 831.85563,764.67515 827.68226,753.97875 826.19174,751.2774 822.44139,745.8366 828.07037,731.09852 832.04299,735.97322 833.90435,737.72069 840.66278,741.58189 844.41727,729.91891 839.40536,720.58502 837.71391,718.32726 833.5512,714.05419 837.87754,697.86111 842.19816,701.497 844.18059,702.69644 851.18284,704.52202 853.91728,691.91096 848.1932,684.14409 846.31399,682.42562 841.85213,679.42909 844.77844,662.14416 849.3482,664.49697 851.40401,665.0795 858.48334,664.84762 860.11936,651.59146 853.8095,645.59616 851.82591,644.42788 847.16259,642.78333 848.60465,624.86544 853.30917,625.85753 855.38834,625.81658 862.36018,623.53439 862.86943,609.9427 856.13585,605.86547 854.07888,605.31412 849.34749,605.03903 849.25562,586.92024 853.99602,586.50733 856.04736,585.86752 862.74266,581.57554 862.11111,568.0224 855.1182,565.94743 853.03904,565.98838 848.33846,567.12702 846.72964,549.24812 851.37021,547.47509 853.36037,546.23207 859.60771,540.03314 857.84036,526.83246 850.7692,526.84613 848.71786,527.48593 844.16714,529.99124 841.09172,512.79739 845.53241,509.65114 847.37453,507.88751 853.03467,499.92004 850.18655,487.39231 843.2062,489.45409 841.23271,490.69929 836.93539,494.49085 832.46038,478.42941 836.57864,474.05052 838.25721,471.73292 843.18744,462.22883 839.33138,450.66551 832.59307,454.7639 830.74862,456.58988 826.84159,461.59164 821.07085,447.0208 824.76431,441.45851 826.24131,438.70727 830.30006,427.86731 825.52443,417.59324 819.21742,423.59638 817.55552,425.91617 814.09347,432.00998 807.18089,419.2945 810.37468,412.75831 811.59892,409.59802 814.70899,397.69402 809.12233,388.94271 803.40133,396.74557 801.93983,399.53018 799.04649,406.5443 791.16379,396.01992 793.77104,388.59241 794.689,385.11008 796.77084,372.4762 790.53287,365.45653 785.52395,374.82499 784.31638,377.98745 782.0476,385.77256 773.37002,377.68153 775.33135,369.60553 775.9562,365.89686 776.94929,352.80711 770.20424,347.6946 766.05011,358.39676 765.11431,361.90807 763.52828,370.25251 754.2834,364.78126 755.54181,356.23728 755.85337,352.39359 755.72935,339.15754 748.63927,336.09872 745.43266,347.8961 744.80781,351.60478 743.92822,360.32367 734.3448,357.62748 734.85874,348.82936 734.85351,344.94419 733.63288,331.90909 726.36334,330.95697 z M 709.27573,401.99183 A 8.5584905,16.0016 0 0 1 715.23279,407.56501 C 737.70717,455.46311 748.84481,494.70023 752.68809,529.44411 746.42825,519.00037 739.00608,512.05215 731.21642,508.65044 726.09342,486.34898 717.12991,460.12706 702.36224,428.65373 A 8.5584905,16.0016 0 0 1 702.98994,406.08683 8.5584905,16.0016 0 0 1 709.27573,401.99183 z M 780.57603,439.80614 A 8.5584905,16.0016 0 0 1 788.67562,457.0628 C 786.45246,520.64436 779.48802,563.08992 769.06558,592.73862 768.589,577.07788 765.97126,562.34997 761.74966,549.64617 766.56151,527.10376 770.13671,496.73009 771.59753,454.95133 A 8.5584905,16.0016 0 0 1 780.57603,439.80614 z M 644.57852,469.67313 C 678.58525,473.82972 701.30204,486.85289 717.16169,506.33974 708.77469,507.22667 700.89862,512.10994 694.09693,520.01594 682.045,511.01999 665.81133,504.33708 643.46587,501.60582 A 8.5584905,16.0016 0 1 1 644.57852,469.67313 z M 722.15975,540.6391 C 735.22461,542.35025 745.7914,559.06509 749.42737,581.14447 L 692.12134,573.63891 C 697.36823,552.72294 709.0949,538.92796 722.15975,540.6391 z M 683.30849,536.96032 C 677.71343,548.67558 673.9886,562.55175 672.16911,577.13438 660.24485,586.70666 646.23411,603.44258 629.40054,631.05334 A 8.5584905,16.0016 0 1 1 618.12119,606.98957 C 643.7396,564.96978 664.72415,544.14845 683.30849,536.96032 z M 816.63396,560.96967 A 8.5584905,16.0016 0 0 1 821.87878,589.13001 C 796.26038,631.1498 775.29099,651.97576 756.70815,659.16145 762.29234,647.46096 766.0264,633.57807 767.84637,619.01856 779.7711,609.43326 793.78253,592.67919 810.6161,565.06843 A 8.5584905,16.0016 0 0 1 816.63396,560.96967 z M 670.95107,603.38316 C 671.42505,619.05093 674.02806,633.76376 678.25031,646.47341 673.44075,669.01005 669.88053,699.37468 668.41912,741.17043 A 8.5584905,16.0016 0 1 1 651.33985,739.09014 C 653.56301,675.50858 660.52849,633.03556 670.95107,603.38316 z M 690.57259,614.97511 747.87862,622.48068 C 742.63383,643.40617 730.92411,657.22546 717.85572,655.51384 704.78733,653.80222 694.20579,637.06339 690.57259,614.97511 z M 687.32855,666.67766 C 693.58922,677.12981 700.99004,684.09531 708.78238,687.50032 713.90482,709.79465 722.88073,735.98186 737.65441,767.46804 A 8.5584905,16.0016 0 1 1 724.78385,788.55671 C 702.30948,740.65872 691.17314,701.42435 687.32855,666.67766 z M 745.90187,676.13482 C 757.95907,685.1222 774.20532,691.7847 796.55078,694.51596 A 8.5584905,16.0016 0 1 1 795.42145,726.44646 C 761.41472,722.28987 738.71262,709.26861 722.85495,689.78203 731.22868,688.89118 739.10858,684.02383 745.90187,676.13482 z"
         style="fill:#000000;fill-opacity:1;stroke:#000000;stroke-width:1" />
    </clipPath>
    <linearGradient
       y2="594.49554"
       x2="877.91479"
       y1="594.49554"
       x1="566.37982"
       gradientTransform="translate(-2.14732,3.58094)"
       gradientUnits="userSpaceOnUse"
       id="linearGradient4270"
       xlink:href="#linearGradient4323"
       inkscape:collect="always" />
    <filter
       height="1.181753"
       y="-0.09087652"
       width="1.4025538"
       x="-0.2012769"
       id="filter4264"
       inkscape:collect="always"
       style="color-interpolation-filters:sRGB">
      <feGaussianBlur
         id="feGaussianBlur4266"
         stdDeviation="26.127"
         inkscape:collect="always" />
    </filter>
    <linearGradient
       gradientTransform="translate(-2.14732,3.58094)"
       gradientUnits="userSpaceOnUse"
       y2="594.49554"
       x2="877.91479"
       y1="594.49554"
       x1="566.37982"
       id="linearGradient4256"
       xlink:href="#linearGradient4250"
       inkscape:collect="always" />
    <linearGradient
       id="linearGradient4201-6">
      <stop
         id="stop4203-5"
         offset="0"
         style="stop-color:#4e3629;stop-opacity:1;" />
      <stop
         style="stop-color:#7c5543;stop-opacity:1;"
         offset="0.75"
         id="stop4278" />
      <stop
         id="stop4205-2"
         offset="1"
         style="stop-color:#4e3629;stop-opacity:1;" />
    </linearGradient>
    <radialGradient
       gradientUnits="userSpaceOnUse"
       gradientTransform="translate(904.28571,-92.857146)"
       r="267.61951"
       fy="725.24884"
       fx="-244.80023"
       cy="725.24884"
       cx="-244.80023"
       id="radialGradient4207-2"
       xlink:href="#linearGradient4201-6"
       inkscape:collect="always" />
    <linearGradient
       id="linearGradient4201">
      <stop
         id="stop4203"
         offset="0"
         style="stop-color:#33231b;stop-opacity:1;" />
      <stop
         id="stop4205"
         offset="1"
         style="stop-color:#7c5543;stop-opacity:1;" />
    </linearGradient>
    <linearGradient
       id="linearGradient4250">
      <stop
         id="stop4252"
         offset="0"
         style="stop-color:#d6ae8d;stop-opacity:1;" />
      <stop
         style="stop-color:#d6ae8d;stop-opacity:1;"
         offset="0.25"
         id="stop4260" />
      <stop
         style="stop-color:#ecd8c8;stop-opacity:1;"
         offset="0.5"
         id="stop4258" />
      <stop
         id="stop4262"
         offset="0.75"
         style="stop-color:#d6ae8d;stop-opacity:1;" />
      <stop
         id="stop4254"
         offset="1"
         style="stop-color:#d6ae8d;stop-opacity:1;" />
    </linearGradient>
    <linearGradient
       id="linearGradient4323">
      <stop
         style="stop-color:#ebc378;stop-opacity:1;"
         offset="0"
         id="stop4325" />
      <stop
         id="stop4327"
         offset="0.25"
         style="stop-color:#d6bc8d;stop-opacity:1;" />
      <stop
         id="stop4329"
         offset="0.5"
         style="stop-color:#ece1c8;stop-opacity:1;" />
      <stop
         style="stop-color:#d6bc8d;stop-opacity:1;"
         offset="0.75"
         id="stop4331" />
      <stop
         style="stop-color:#ebc378;stop-opacity:1;"
         offset="1"
         id="stop4333" />
    </linearGradient>
    <linearGradient
       id="linearGradient4335">
      <stop
         id="stop4337"
         offset="0"
         style="stop-color:#775921;stop-opacity:1;" />
      <stop
         id="stop4339"
         offset="1"
         style="stop-color:#cf9a35;stop-opacity:1;" />
    </linearGradient>
    <linearGradient
       id="linearGradient4515">
      <stop
         id="stop4517"
         offset="0"
         style="stop-color:#6a4d40;stop-opacity:1;" />
      <stop
         id="stop4519"
         offset="1"
         style="stop-color:#947f69;stop-opacity:1;" />
    </linearGradient>
    <linearGradient
       id="linearGradient4533">
      <stop
         id="stop4535"
         offset="0"
         style="stop-color:#d0bb93;stop-opacity:1;" />
      <stop
         style="stop-color:#c4b79f;stop-opacity:1;"
         offset="0.25"
         id="stop4537" />
      <stop
         style="stop-color:#e5decf;stop-opacity:1;"
         offset="0.5"
         id="stop4539" />
      <stop
         id="stop4541"
         offset="0.75"
         style="stop-color:#c3b7a0;stop-opacity:1;" />
      <stop
         id="stop4543"
         offset="1"
         style="stop-color:#cfba94;stop-opacity:1;" />
    </linearGradient>
  </defs>
  <sodipodi:namedview
     id="base"
     pagecolor="#ffffff"
     bordercolor="#666666"
     borderopacity="1.0"
     inkscape:pageopacity="0.0"
     inkscape:pageshadow="2"
     inkscape:zoom="1"
     inkscape:cx="48"
     inkscape:cy="16"
     inkscape:document-units="px"
     inkscape:current-layer="layer1"
     showgrid="false"
     width="0px"
     height="0px"
     fit-margin-top="0"
     fit-margin-left="0"
     fit-margin-right="0"
     fit-margin-bottom="0" />
  <metadata
     id="metadata4832">
    <rdf:RDF>
      <cc:Work
         rdf:about="">
        <dc:format>image/svg+xml</dc:format>
        <dc:type
           rdf:resource="http://purl.org/dc/dcmitype/StillImage" />
        <cc:license
           rdf:resource="" />
        <dc:title>MagneTank Gears</dc:title>
        <dc:rights>
          <cc:Agent>
            <dc:title>Copyright 2012 by Brian Broyles. See Description for Rights.</dc:title>
          </cc:Agent>
        </dc:rights>
        <dc:creator>
          <cc:Agent>
            <dc:title>Brian Broyles for IFL Game Studio</dc:title>
          </cc:Agent>
        </dc:creator>
        <dc:description>This artwork can only be distributed inside of a compiled Android application (apk) by individuals that have purchased a copy of the book AndEngine for Android Game Development Cookbook</dc:description>
        <dc:date>September 2012</dc:date>
      </cc:Work>
    </rdf:RDF>
  </metadata>
  <g
     inkscape:label="Layer 1"
     inkscape:groupmode="layer"
     id="layer1"
     transform="translate(0,-1020.3622)">
    <g
       transform="matrix(0.05985149,0,0,0.05985149,78.405197,1019.4537)"
       style="stroke:none"
       id="g4362">
      <path
         style="fill:url(#radialGradient4366);fill-opacity:1;stroke:none"
         d="M 18.686684,15.232132 15.566493,28.085905 15.255739,31.984787 15.663419,40.819631 -2.4058719,42.314985 -3.468747,33.517339 -4.4024408,29.751708 -9.6001855,17.589272 -23.029973,19.760236 -24.12681,32.968642 -23.782369,36.830325 -22.005442,45.524834 -39.634518,49.812224 -42.057783,41.310912 -43.514788,37.700193 -50.597321,26.521172 -63.501062,30.790694 -62.533402,43.975791 -61.597937,47.772621 -58.467705,56.045995 -75.19034,63.067653 -78.933939,55.016903 -80.967797,51.720637 -89.671351,41.760457 -101.80653,47.989565 -98.727917,60.867017 -97.241484,64.444765 -92.860403,72.146319 -108.25043,81.690247 -113.20482,74.365545 -115.75313,71.380188 -125.90576,62.910791 -136.90331,70.984632 -131.88922,83.220096 -129.79296,86.51282 -124.29823,93.431241 -138.02484,105.25956 -144.05815,98.778616 -147.01846,96.254854 -158.38937,89.482239 -167.98087,99.166472 -161.11142,110.45149 -158.53368,113.40388 -151.99655,119.38671 -163.73074,133.23034 -170.70929,127.74207 -174.01566,125.73876 -186.3152,120.80298 -194.26523,131.83384 -185.67762,141.95711 -182.71908,144.44967 -175.33739,149.32034 -184.72423,164.81482 -192.44843,160.527 -196.06966,159.04237 -208.9752,156.11292 -215.10897,168.26137 -205.07228,176.89385 -201.73471,178.89539 -193.63856,182.56739 -200.51033,199.35889 -208.85186,196.32683 -212.66137,195.38499 -225.85737,194.50655 -230.00362,207.48118 -218.74687,214.44808 -215.12565,215.93271 -206.6047,218.26598 -210.73484,235.93474 -219.44054,234.20666 -223.30645,233.92534 -236.51035,235.11317 -238.56375,248.56368 -226.37838,253.69374 -222.57241,254.57318 -213.75323,255.5436 -215.10591,273.61808 -223.95206,273.27519 -227.84495,273.62141 -240.68234,276.85425 -240.59822,290.46511 -227.74445,293.58531 -223.87677,293.89783 -215.04192,293.49015 -213.51714,311.52647 -222.31301,312.62055 -226.11162,313.52481 -238.24108,318.75198 -236.10132,332.18354 -222.89468,333.24918 -219.00003,332.93417 -210.33672,331.15901 -206.0199,348.75512 -214.55064,351.21135 -218.16136,352.66836 -229.34215,359.71969 -225.07086,372.65463 -211.88576,371.68697 -208.08893,370.75151 -199.78436,367.6195 -192.7939,384.34391 -200.81522,388.05454 -204.14091,390.12137 -214.10109,398.82492 -207.87376,410.9289 -194.99453,407.88149 -191.38736,406.36208 -183.6858,401.981 -174.1713,417.404 -181.49601,422.35839 -184.45193,424.87373 -192.91956,435.05756 -184.87692,446.05688 -172.64323,441.01159 -169.31753,438.94476 -162.39911,433.45003 -150.57079,447.17664 -157.05174,453.20995 -159.6067,456.17203 -166.34988,467.50997 -156.69508,477.13444 -145.38063,470.23202 -142.45767,467.68725 -136.47484,461.15013 -122.63122,472.88431 -128.11949,479.86286 -130.15577,483.1398 -135.02737,495.467 -123.99829,503.38583 -113.90445,494.8312 -111.41189,491.87266 -106.51179,484.45799 -91.015545,493.87603 -95.334567,501.60201 -96.787997,505.22146 -99.748647,518.12877 -87.570763,524.22957 -78.967711,514.22585 -76.934972,510.88651 -73.294173,502.79213 -56.502673,509.66391 -59.567706,517.976 -60.44537,521.81317 -61.32558,534.97797 -48.380383,539.15719 -41.413484,527.90044 -39.928855,524.27922 -37.595586,515.75827 -19.926826,519.88841 -21.6549,528.59411 -21.936226,532.46002 -20.750167,545.63272 -7.2666807,547.71555 -2.2007924,535.50252 -1.2883865,531.72598 -0.31796346,522.9068 17.756518,524.25948 17.444832,533.10386 17.759845,536.99852 20.992688,549.83592 34.634752,549.75002 37.754943,536.89625 38.036269,533.03034 37.626817,524.16429 55.696108,522.66894 56.758983,531.46659 57.692677,535.23222 62.890422,547.39465 76.320209,545.22369 77.417047,532.01528 77.103805,528.15183 75.295679,519.45909 92.924754,515.1717 95.31682,523.67478 96.836224,527.28196 103.88933,538.49395 116.79307,534.22443 115.85661,521.03756 114.88995,517.2425 111.75794,508.93793 128.48058,501.91627 132.22418,509.96702 134.25804,513.26329 142.99279,523.22169 155.09677,516.99436 152.01816,504.11691 150.50052,500.54093 146.15064,492.8376 161.57187,483.2919 166.49683,490.64958 169.04337,493.60373 179.2272,502.07136 190.19532,494.03049 185.15003,481.7968 183.1144,478.46933 177.58847,471.55268 191.31508,459.72437 197.34839,466.20531 200.3087,468.72907 211.67961,475.50168 221.27111,465.81745 214.37046,454.5342 211.82569,451.61124 205.28857,445.62841 217.02275,431.78479 224.0013,437.27306 227.30767,439.27637 239.60544,444.18094 247.52428,433.15186 238.96964,423.05802 236.00932,420.53426 228.59643,415.66536 238.01447,400.16911 245.74045,404.48814 249.3599,405.94156 262.26544,408.87102 268.39921,396.72256 258.36429,388.12128 255.02495,386.08854 246.96,382.41477 253.80235,365.65624 262.14387,368.6883 265.95161,369.59894 279.11642,370.47915 283.29386,357.50275 272.03711,350.53585 268.41766,349.08242 259.89671,346.74916 264.02685,329.0804 272.73255,330.80847 276.59846,331.0898 289.80236,329.90196 291.88519,316.41848 279.67039,311.32139 275.86442,310.44196 267.07644,309.46976 268.42912,291.39528 277.27173,291.67577 281.13696,291.39373 293.97436,288.16088 293.91966,274.51705 281.03469,271.39863 277.16878,271.1173 268.30273,271.52675 266.80738,253.45746 275.63623,252.39281 279.40186,251.45912 291.56252,246.23018 289.36036,232.80216 276.18492,231.73475 272.32147,232.04799 263.62696,233.82492 259.31014,216.22882 267.84265,213.80378 271.4204,212.31735 282.63239,205.26424 278.3611,192.3293 265.176,193.29696 261.38094,194.26363 253.0746,197.36443 246.08414,180.64002 254.13489,176.89642 257.43115,174.86256 267.39133,166.15901 261.164,154.05503 248.28477,157.10245 244.7088,158.62008 236.97604,163.00293 227.43034,147.5817 234.78802,142.65674 237.74217,140.1102 246.241,129.9246 238.16893,118.95825 225.93347,123.97234 222.63897,126.0374 215.72232,131.56333 203.89401,117.83671 210.34375,111.80518 212.89871,108.84309 219.67132,97.47218 209.98709,87.880679 198.67264,94.783099 195.74968,97.327869 189.76685,103.865 175.92323,92.130812 181.4115,85.152258 183.41481,81.845891 188.35058,69.546349 177.28853,61.598087 167.19469,70.152727 164.7039,73.142466 159.8038,80.557133 144.33875,71.137326 148.6248,63.381916 150.08,59.793664 153.04066,46.886348 140.8922,40.752583 132.25795,50.758073 130.22698,54.128611 126.55321,62.193563 109.79291,55.320016 112.82674,47.009692 113.73738,43.201954 114.61582,30.005947 101.64119,25.859708 94.705491,37.114679 93.220861,40.735902 90.887593,49.256855 73.218834,45.126712 74.946908,36.421016 75.226462,32.523904 74.040403,19.351207 60.588117,17.266605 55.459829,29.483176 54.578623,33.257941 53.6082,42.077125 35.533719,40.724444 35.845405,31.88006 35.532163,28.016604 32.299319,15.179209 18.686684,15.232132 z M 14.075751,96.655641 C 29.302032,95.611419 44.407668,96.463565 59.097843,99.07635 L 23.687967,209.7301 C 17.086792,210.00123 10.444081,211.12573 3.8582827,213.29732 -2.7246539,215.46797 -8.8245135,218.50911 -14.290405,222.21536 L -108.50542,154.38408 C -87.994103,132.70275 -61.977965,115.63857 -31.644947,105.63661 -16.480916,100.63645 -1.15053,97.699862 14.075751,96.655641 z M 106.72879,114.36988 C 151.00502,135.46832 186.94323,173.92753 203.51518,224.18542 207.069,234.96311 209.55632,245.82875 211.08815,256.68341 L 94.929237,257.17455 C 90.045534,243.99285 81.736727,232.99815 71.313594,224.93003 L 106.72879,114.36988 z M -137.75127,194.98206 -43.506829,262.78036 C -47.086701,275.46581 -47.248152,289.27111 -43.333484,302.77233 L -136.96681,371.44003 C -142.19182,361.80315 -146.63993,351.57444 -150.19374,340.79674 -166.76318,290.54648 -160.78549,238.27434 -137.75127,194.98206 z M 24.443727,243.99235 C 26.568056,243.87174 28.662427,243.92173 30.71202,244.13728 L 52.721098,310.93466 C 46.390446,316.74633 38.066357,320.49944 28.817081,321.02455 7.5489191,322.23201 -10.663525,305.9468 -11.870984,284.67864 -13.078443,263.41048 3.1755654,245.19981 24.443727,243.99235 z M 95.203175,307.20821 211.29792,306.68942 C 203.28439,367.46052 165.4508,422.126 108.18823,449.92038 L 71.816847,339.64844 C 82.561727,331.15163 90.633066,319.85934 95.203175,307.20821 z M -13.748431,343.12903 C -2.5388941,350.58777 10.642683,354.90087 24.348311,355.33301 L 60.686725,465.57552 C -1.8771688,477.29252 -64.794729,455.85111 -107.38353,411.76553 L -13.748431,343.12903 z"
         id="path3237"
         inkscape:connector-curvature="0" />
      <path
         transform="matrix(1.8696755,0,0,0.92641735,-1319.5204,-271.56085)"
         inkscape:connector-curvature="0"
         d="M 720,598.07647 564.2325,943.07647 875.7675,943.07647 720,598.07647 z M 564.2325,253.07647 720,598.07647 875.7675,253.07647 564.2325,253.07647 z"
         style="fill:url(#linearGradient4368);fill-opacity:1;stroke:none;filter:url(#filter4264)"
         id="path4268"
         clip-path="url(#clipPath4355)" />
    </g>
    <g
       transform="matrix(0.05989828,0,0,0.05989828,-27.126763,1000.5384)"
       id="g4314">
      <path
         inkscape:connector-curvature="0"
         id="path4213"
         d="M 731.89741,330.95697 727.82017,343.54658 727.23765,347.39028 726.99373,356.23861 708.87494,356.41038 708.46202,347.54737 707.82223,343.71203 703.53025,331.194 689.9771,332.37479 687.90213,345.44925 687.94308,349.33662 689.08172,358.12517 671.20281,361.13314 669.39862,352.4546 668.18677,348.73582 661.98785,337.05534 648.75599,340.35751 648.76966,353.57829 649.44063,357.41581 651.91477,365.922 634.72092,371.67204 631.60584,363.37157 629.81104,359.92523 621.87475,349.34477 609.347,354.66985 611.4088,367.72083 612.654,371.41061 616.44555,379.44521 600.38411,387.81204 595.97405,380.11003 593.68762,376.97384 584.15236,367.75372 572.62021,374.96549 576.7186,387.56393 578.51341,391.01028 583.51517,398.31516 568.94433,409.10457 563.41541,402.17 560.6308,399.43749 549.82201,391.85112 539.54794,400.78 545.55108,412.57208 547.87088,415.67928 553.96469,422.15219 541.24921,435.07647 534.71301,429.10513 531.52155,426.814 519.64873,421.00137 510.89741,431.44661 518.6691,442.14084 521.45371,444.87336 528.46783,450.28299 517.94345,465.02107 510.54711,460.14854 507.06696,458.40108 494.4309,454.53988 487.41122,466.20286 496.7797,475.56792 499.94434,477.79451 507.72726,482.06758 499.63622,498.29184 491.56024,494.62477 487.85157,493.4565 474.73064,491.59757 469.64931,504.21081 480.35147,511.97767 483.8316,513.72514 492.17604,516.6905 486.73596,533.9776 478.19199,531.6248 474.3483,531.04228 461.11224,531.27416 458.05342,544.53031 469.8508,550.52562 473.55949,551.69389 482.27838,553.33844 479.58218,571.25632 470.78407,570.29541 466.86772,570.30301 453.83262,572.5852 452.8805,586.17688 465.47011,590.25412 469.34498,590.83882 478.19331,591.08274 478.36508,609.20154 469.50207,609.61445 465.66673,610.25424 453.1487,614.54623 454.32949,628.09938 467.40396,630.17434 471.29133,630.13339 480.07988,628.99476 483.05667,646.87148 474.37813,648.67567 470.69053,649.88971 459.01004,656.08862 462.28323,669.28712 475.53299,669.30681 479.37051,668.63584 487.8767,666.1617 493.62893,683.32438 485.32627,686.47063 481.87993,688.26544 471.29948,696.20172 476.62456,708.72947 489.67554,706.66768 493.36532,705.42248 501.36874,701.62874 509.73557,717.69018 502.03356,722.10024 498.89737,724.38667 489.71062,733.89294 496.92019,745.45626 509.48746,741.35564 512.96498,739.56307 520.26986,734.56131 531.05928,749.13209 524.12472,754.66102 521.39437,757.41456 513.80583,768.25446 522.7347,778.52853 534.49561,772.52321 537.63398,770.20565 544.07572,764.1096 557,776.82513 551.02866,783.36123 548.77089,786.52379 542.95607,798.42775 553.37014,807.17688 564.09554,799.40738 566.7969,796.62053 572.23987,789.57747 586.97577,800.13302 582.10325,807.52941 580.35578,811.00951 576.49458,823.64558 588.15756,830.66525 597.49145,821.2946 599.74921,818.13213 603.99111,810.34703 620.21537,818.43807 616.57947,826.51623 615.38004,830.22268 613.5211,843.34365 626.16552,848.42718 633.93238,837.72506 635.64867,834.24269 638.64519,825.90049 655.93231,831.34051 653.5795,839.88448 652.99698,843.72817 653.22885,856.96423 666.48501,860.02305 672.48033,848.22567 673.64859,844.51703 675.29314,835.79804 693.21103,838.49435 692.21894,847.29022 692.25771,851.20881 694.5399,864.24385 708.13159,865.19597 712.20882,852.60641 712.76235,848.72931 713.03744,839.88321 731.15625,839.71134 731.56914,848.57446 732.20895,852.40975 736.50093,864.92777 750.05407,863.74698 752.12905,850.67251 752.08809,846.78516 750.94946,837.9966 768.82617,835.01985 770.5992,843.69616 771.8444,847.386 778.04333,859.06643 791.24183,855.79325 791.23035,842.54125 790.59055,838.70596 788.08523,830.19759 805.27909,824.44754 808.39416,832.74802 810.18897,836.19436 818.15643,846.77699 830.68417,841.45192 828.59121,828.39875 827.37718,824.7112 823.58344,816.70773 839.64706,808.30973 844.02377,816.04068 846.34137,819.1791 855.84764,828.36586 867.41097,821.15628 863.31257,808.55789 861.4866,805.10926 856.48483,797.80448 871.05568,787.01501 876.61577,793.95181 879.36921,796.6821 890.20917,804.27064 900.48324,795.34177 894.48009,783.54975 892.12914,780.44026 886.06431,774.00071 898.77979,761.07647 905.31599,767.04782 908.47845,769.30553 920.38246,775.1204 929.13377,764.67515 921.33091,753.97875 918.54412,751.2774 911.53218,745.8366 922.05656,731.09852 929.48407,735.97322 932.96421,737.72069 945.60028,741.58189 952.61995,729.91891 943.2493,720.58502 940.08684,718.32726 932.30392,714.05419 940.39277,697.86111 948.47094,701.497 952.17743,702.69644 965.26937,704.52202 970.38188,691.91096 959.67971,684.14409 956.16621,682.42562 947.82397,679.42909 953.29522,662.14416 961.83919,664.49697 965.68288,665.0795 978.91894,664.84762 981.97776,651.59146 970.18037,645.59616 966.4717,644.42788 957.7528,642.78333 960.449,624.86544 969.24492,625.85753 973.13229,625.81658 986.16738,623.53439 987.1195,609.9427 974.52989,605.86547 970.68402,605.31412 961.83787,605.03903 961.66609,586.92024 970.52911,586.50733 974.36445,585.86752 986.88248,581.57554 985.70169,568.0224 972.62722,565.94743 968.73986,565.98838 959.9513,567.12702 956.94333,549.24812 965.61969,547.47509 969.34065,546.23207 981.02114,540.03314 977.71678,526.83246 964.496,526.84613 960.66066,527.48593 952.15229,529.99124 946.40225,512.79739 954.7049,509.65114 958.14907,507.88751 968.7317,499.92004 963.40663,487.39231 950.35565,489.45409 946.66586,490.69929 938.63126,494.49085 930.26444,478.42941 937.96426,474.05052 941.10263,471.73292 950.32057,462.22883 943.11099,450.66551 930.51254,454.7639 927.06401,456.58988 919.75913,461.59164 908.96972,447.0208 915.87529,441.45851 918.6368,438.70727 926.22535,427.86731 917.29648,417.59324 905.5044,423.59638 902.3972,425.91617 895.92429,432.00998 883,419.2945 888.97135,412.75831 891.26029,409.59802 897.07511,397.69402 886.62986,388.94271 875.93345,396.74557 873.20093,399.53018 867.79131,406.5443 853.05322,396.01992 857.92793,388.59241 859.64422,385.11008 863.53659,372.4762 851.87361,365.45653 842.50855,374.82499 840.25079,377.98745 836.0089,385.77256 819.78464,377.68153 823.4517,369.60553 824.61997,365.89686 826.47672,352.80711 813.86566,347.6946 806.0988,358.39676 804.34915,361.90807 801.38379,370.25251 784.09887,364.78126 786.45168,356.23728 787.0342,352.39359 786.80232,339.15754 773.54617,336.09872 767.55085,347.8961 766.38259,351.60478 764.73803,360.32367 746.82015,357.62748 747.78106,348.82936 747.77128,344.94419 745.48909,331.90909 731.89741,330.95697 z M 699.94913,401.99183 A 16.0016,16.0016 0 0 1 711.0869,407.56501 C 753.10669,455.46311 773.93046,494.70023 781.11616,529.44411 769.41229,519.00037 755.53524,512.05215 740.97109,508.65044 731.39275,486.34898 714.6339,460.12706 687.02314,428.65373 A 16.0016,16.0016 0 0 1 688.19673,406.08683 16.0016,16.0016 0 0 1 699.94913,401.99183 z M 833.25755,439.80614 A 16.0016,16.0016 0 0 1 848.40116,457.0628 C 844.24457,520.64436 831.22332,563.08992 811.73674,592.73862 810.84569,577.07788 805.95137,562.34997 798.05835,549.64617 807.05495,527.10376 813.7394,496.73009 816.47066,454.95133 A 16.0016,16.0016 0 0 1 833.25755,439.80614 z M 578.98633,469.67313 C 642.56789,473.82972 685.04091,486.85289 714.69332,506.33974 699.01235,507.22667 684.28665,512.10994 671.5697,520.01594 649.0365,511.01999 618.6848,504.33708 576.90604,501.60582 A 16.0016,16.0016 0 1 1 578.98633,469.67313 z M 724.03807,540.6391 C 748.46511,542.35025 768.22157,559.06509 775.01967,581.14447 L 667.87599,573.63891 C 677.68597,552.72294 699.61103,538.92796 724.03807,540.6391 z M 651.39881,536.96032 C 640.93786,548.67558 633.97364,562.55175 630.57178,577.13438 608.27729,586.70666 582.08176,603.44258 550.60844,631.05334 A 16.0016,16.0016 0 1 1 529.51971,606.98957 C 577.41782,564.96978 616.65212,544.14845 651.39881,536.96032 z M 900.67417,560.96967 A 16.0016,16.0016 0 0 1 910.48029,589.13001 C 862.5822,631.1498 823.37624,651.97576 788.63236,659.16145 799.07299,647.46096 806.05446,633.57807 809.45721,619.01856 831.7526,609.43326 857.94941,592.67919 889.42274,565.06843 A 16.0016,16.0016 0 0 1 900.67417,560.96967 z M 628.29445,603.38316 C 629.18064,619.05093 634.04742,633.76376 641.94165,646.47341 632.94935,669.01005 626.29289,699.37468 623.56053,741.17043 A 16.0016,16.0016 0 1 1 591.62783,739.09014 C 595.78442,675.50858 608.8076,633.03556 628.29445,603.38316 z M 664.98033,614.97511 772.12401,622.48068 C 762.31795,643.40617 740.42458,657.22546 715.99092,655.51384 691.55727,653.80222 671.77322,637.06339 664.98033,614.97511 z M 658.91502,666.67766 C 670.62045,677.12981 684.45758,684.09531 699.02673,687.50032 708.60402,709.79465 725.38606,735.98186 753.00804,767.46804 A 16.0016,16.0016 0 1 1 728.94428,788.55671 C 686.9245,740.65872 666.10316,701.42435 658.91502,666.67766 z M 768.42812,676.13482 C 790.97118,685.1222 821.34639,691.7847 863.12514,694.51596 A 16.0016,16.0016 0 1 1 861.01367,726.44646 C 797.43211,722.28987 754.98655,709.26861 725.33786,689.78203 740.99401,688.89118 755.72688,684.02383 768.42812,676.13482 z"
         style="fill:url(#radialGradient4319);fill-opacity:1;stroke:none" />
      <path
         id="path4196"
         style="opacity:0.71238942;fill:url(#linearGradient4321);fill-opacity:1;stroke:none;filter:url(#filter4264)"
         d="M 720,598.07647 564.2325,943.07647 875.7675,943.07647 720,598.07647 z M 564.2325,253.07647 720,598.07647 875.7675,253.07647 564.2325,253.07647 z"
         inkscape:connector-curvature="0"
         transform="matrix(1.8696755,0,0,1,-626.16633,0)"
         clip-path="url(#clipPath4274)" />
      <path
         inkscape:connector-curvature="0"
         id="path4288"
         transform="matrix(0.34899331,0,0,0.34899331,324.14187,380.37767)"
         style="opacity:0.19911505;fill:none;stroke:#000000;stroke-width:17.19230843;filter:url(#filter4304)"
         d="M 1347.1429,623.79077 C 1347.1429,741.34853 1251.8435,836.64792 1134.2858,836.64792 1016.728,836.64792 921.42862,741.34853 921.42862,623.79077 921.42862,506.23302 1016.728,410.93362 1134.2858,410.93362 1251.8435,410.93362 1347.1429,506.23302 1347.1429,623.79077 z M 1441.2912,623.79076 C 1441.2912,793.34522 1303.8402,930.79626 1134.2858,930.79626 964.73129,930.79626 827.28026,793.34522 827.28026,623.79076 827.28026,454.23632 964.73129,316.78526 1134.2858,316.78526 1303.8402,316.78526 1441.2912,454.23632 1441.2912,623.79076 z M 1543.6264,623.79075 C 1543.6264,849.86336 1360.3583,1033.1314 1134.2858,1033.1314 908.21312,1033.1314 724.94509,849.86336 724.94509,623.79075 724.94509,397.71817 908.21312,214.4501 1134.2858,214.4501 1360.3583,214.4501 1543.6264,397.71817 1543.6264,623.79075 z M 1650.0549,623.79076 C 1650.0549,908.64224 1419.1371,1139.56 1134.2858,1139.56 849.43424,1139.56 618.51652,908.64224 618.51652,623.79076 618.51652,338.9393 849.43424,108.02154 1134.2858,108.02154 1419.1371,108.02154 1650.0549,338.9393 1650.0549,623.79076 z M 1744.2032,623.79075 C 1744.2032,960.63893 1471.1338,1233.7083 1134.2858,1233.7083 797.43752,1233.7083 524.36816,960.63893 524.36816,623.79075 524.36816,286.9426 797.43752,13.873186 1134.2858,13.873186 1471.1338,13.873186 1744.2032,286.9426 1744.2032,623.79075 z"
         clip-path="url(#clipPath4310)" />
      <path
         clip-path="url(#clipPath4529)"
         d="M 1347.1429,623.79077 C 1347.1429,741.34853 1251.8435,836.64792 1134.2858,836.64792 1016.728,836.64792 921.42862,741.34853 921.42862,623.79077 921.42862,506.23302 1016.728,410.93362 1134.2858,410.93362 1251.8435,410.93362 1347.1429,506.23302 1347.1429,623.79077 z M 1441.2912,623.79076 C 1441.2912,793.34522 1303.8402,930.79626 1134.2858,930.79626 964.73129,930.79626 827.28026,793.34522 827.28026,623.79076 827.28026,454.23632 964.73129,316.78526 1134.2858,316.78526 1303.8402,316.78526 1441.2912,454.23632 1441.2912,623.79076 z M 1543.6264,623.79075 C 1543.6264,849.86336 1360.3583,1033.1314 1134.2858,1033.1314 908.21312,1033.1314 724.94509,849.86336 724.94509,623.79075 724.94509,397.71817 908.21312,214.4501 1134.2858,214.4501 1360.3583,214.4501 1543.6264,397.71817 1543.6264,623.79075 z M 1650.0549,623.79076 C 1650.0549,908.64224 1419.1371,1139.56 1134.2858,1139.56 849.43424,1139.56 618.51652,908.64224 618.51652,623.79076 618.51652,338.9393 849.43424,108.02154 1134.2858,108.02154 1419.1371,108.02154 1650.0549,338.9393 1650.0549,623.79076 z M 1744.2032,623.79075 C 1744.2032,960.63893 1471.1338,1233.7083 1134.2858,1233.7083 797.43752,1233.7083 524.36816,960.63893 524.36816,623.79075 524.36816,286.9426 797.43752,13.873186 1134.2858,13.873186 1471.1338,13.873186 1744.2032,286.9426 1744.2032,623.79075 z"
         style="opacity:0.19911505;fill:none;stroke:#000000;stroke-width:15.66332722;filter:url(#filter4304)"
         transform="matrix(0.38306042,0,0,0.38306042,285.50004,359.12692)"
         id="path4523"
         inkscape:connector-curvature="0" />
    </g>
    <g
       transform="matrix(0.05985854,0,0,0.05985854,63.530007,1001.8162)"
       id="g4545">
      <path
         style="fill:url(#radialGradient4549);fill-opacity:1;stroke:none"
         d="M -266.24203,309.82956 -269.42953,322.67331 -269.74203,326.54831 -269.36703,335.42331 -287.46078,336.82956 -288.46078,328.01706 -289.36703,324.23581 -294.52328,312.04831 -307.99203,314.17331 -309.11703,327.36081 -308.80453,331.26706 -307.05453,339.95456 -324.67953,344.17331 -327.08578,335.64206 -328.55453,332.04831 -335.55453,320.79831 -348.52328,325.01706 -347.58578,338.20456 -346.67953,341.98581 -343.58578,350.29831 -360.33578,357.23581 -364.02328,349.20456 -366.05453,345.86081 -374.74203,335.86081 -386.86703,342.04831 -383.86703,354.95456 -382.36703,358.54831 -378.02328,366.26706 -393.49203,375.73581 -398.39828,368.36081 -400.92953,365.39206 -411.05453,356.89206 -422.05453,364.89206 -417.08578,377.14206 -415.05453,380.45456 -409.55453,387.42331 -423.33578,399.17331 -429.33578,392.67331 -432.30453,390.14206 -443.64828,383.29831 -453.27328,392.92331 -446.42953,404.26706 -443.89828,407.23581 -437.39828,413.23581 -449.14828,427.01706 -456.11703,421.51706 -459.42953,419.48581 -471.67953,414.51706 -479.67953,425.51706 -471.17953,435.64206 -468.21078,438.17331 -460.83578,443.07956 -470.30453,458.54831 -478.02328,454.20456 -481.61703,452.70456 -494.52328,449.70456 -500.71078,461.82956 -490.71078,470.51706 -487.36703,472.54831 -479.33578,476.23581 -486.24203,492.98581 -494.55453,489.89206 -498.36703,488.98581 -511.55453,488.04831 -515.77328,500.98581 -504.52328,508.01706 -500.92953,509.48581 -492.39828,511.86081 -496.61703,529.51706 -505.30453,527.76706 -509.21078,527.45456 -522.39828,528.57956 -524.52328,542.04831 -512.33578,547.20456 -508.52328,548.07956 -499.74203,549.11081 -501.14828,567.20456 -510.02328,566.82956 -513.89828,567.14206 -526.74203,570.32956 -526.74203,583.92331 -513.89828,587.11081 -510.02328,587.42331 -501.14828,587.04831 -499.74203,605.14206 -508.52328,606.14206 -512.33578,607.04831 -524.52328,612.20456 -522.39828,625.67331 -509.21078,626.79831 -505.30453,626.48581 -496.61703,624.73581 -492.39828,642.36081 -500.92953,644.76706 -504.52328,646.23581 -515.77328,653.23581 -511.55453,666.20456 -498.36703,665.26706 -494.55453,664.32956 -486.24203,661.26706 -479.33578,678.01706 -487.36703,681.70456 -490.71078,683.73581 -500.71078,692.39206 -494.52328,704.54831 -481.61703,701.54831 -478.02328,700.04831 -470.30453,695.70456 -460.83578,711.17331 -468.21078,716.07956 -471.17953,718.61081 -479.67953,728.73581 -471.67953,739.73581 -459.42953,734.76706 -456.11703,732.73581 -449.14828,727.23581 -437.39828,741.01706 -443.89828,747.01706 -446.42953,749.98581 -453.27328,761.32956 -443.64828,770.95456 -432.30453,764.11081 -429.33578,761.57956 -423.33578,755.04831 -409.55453,766.82956 -415.05453,773.79831 -417.08578,777.11081 -422.05453,789.36081 -411.05453,797.36081 -400.92953,788.86081 -398.39828,785.89206 -393.49203,778.51706 -378.02328,787.98581 -382.36703,795.70456 -383.86703,799.29831 -386.86703,812.20456 -374.74203,818.36081 -366.05453,808.39206 -364.02328,805.04831 -360.33578,796.98581 -343.58578,803.92331 -346.67953,812.23581 -347.58578,816.01706 -348.52328,829.23581 -335.55453,833.42331 -328.55453,822.20456 -327.08578,818.61081 -324.67953,810.07956 -307.05453,814.29831 -308.80453,822.98581 -309.11703,826.89206 -307.99203,840.04831 -294.52328,842.20456 -289.36703,830.01706 -288.46078,826.20456 -287.46078,817.42331 -269.36703,818.82956 -269.74203,827.70456 -269.42953,831.57956 -266.24203,844.42331 -252.64828,844.42331 -249.46078,831.57956 -249.14828,827.70456 -249.52328,818.82956 -231.42953,817.42331 -230.42953,826.20456 -229.52328,830.01706 -224.36703,842.20456 -210.89828,840.04831 -209.77328,826.89206 -210.08578,822.98581 -211.83578,814.29831 -194.21078,810.07956 -191.80453,818.61081 -190.33578,822.20456 -183.33578,833.42331 -170.36703,829.23581 -171.30453,816.01706 -172.21078,812.23581 -175.30453,803.92331 -158.55453,796.98581 -154.86703,805.04831 -152.83578,808.39206 -144.14828,818.36081 -132.02328,812.20456 -135.02328,799.29831 -136.52328,795.70456 -140.86703,787.98581 -125.39828,778.51706 -120.49203,785.89206 -117.96078,788.86081 -107.83578,797.36081 -96.835778,789.36081 -101.80453,777.11081 -103.83578,773.79831 -109.33578,766.82956 -95.554528,755.04831 -89.554528,761.57956 -86.585778,764.11081 -75.242028,770.95456 -65.617028,761.32956 -72.460778,749.98581 -74.992028,747.01706 -81.492028,741.01706 -69.742028,727.23581 -62.773278,732.73581 -59.460778,734.76706 -47.210778,739.73581 -39.210778,728.73581 -47.710778,718.61081 -50.679528,716.07956 -58.054528,711.17331 -48.585778,695.70456 -40.867028,700.04831 -37.273278,701.54831 -24.367028,704.54831 -18.179528,692.39206 -28.179528,683.73581 -31.523278,681.70456 -39.585778,678.01706 -32.648278,661.26706 -24.335778,664.32956 -20.523278,665.26706 -7.3357777,666.20456 -3.1170277,653.23581 -14.367028,646.23581 -17.960778,644.76706 -26.492028,642.36081 -22.273278,624.73581 -13.585778,626.48581 -9.6795277,626.79831 3.5079723,625.67331 5.6329723,612.20456 -6.5545277,607.04831 -10.367028,606.14206 -19.148278,605.14206 -17.742028,587.04831 -8.8670277,587.42331 -4.9920277,587.11081 7.8517223,583.92331 7.8517223,570.32956 -4.9920277,567.14206 -8.8670277,566.82956 -17.742028,567.20456 -19.148278,549.11081 -10.367028,548.07956 -6.5545277,547.20456 5.6329723,542.04831 3.5079723,528.57956 -9.6795277,527.45456 -13.585778,527.76706 -22.273278,529.51706 -26.492028,511.86081 -17.960778,509.48581 -14.367028,508.01706 -3.1170277,500.98581 -7.3357777,488.04831 -20.523278,488.98581 -24.335778,489.89206 -32.648278,492.98581 -39.585778,476.23581 -31.523278,472.54831 -28.179528,470.51706 -18.179528,461.82956 -24.367028,449.70456 -37.273278,452.70456 -40.867028,454.20456 -48.585778,458.54831 -58.054528,443.07956 -50.679528,438.17331 -47.710778,435.64206 -39.210778,425.51706 -47.210778,414.51706 -59.460778,419.48581 -62.773278,421.51706 -69.742028,427.01706 -81.492028,413.23581 -74.992028,407.23581 -72.460778,404.26706 -65.617028,392.92331 -75.242028,383.29831 -86.585778,390.14206 -89.554528,392.67331 -95.554528,399.17331 -109.33578,387.42331 -103.83578,380.45456 -101.80453,377.14206 -96.835778,364.89206 -107.83578,356.89206 -117.96078,365.39206 -120.49203,368.36081 -125.39828,375.73581 -140.86703,366.26706 -136.52328,358.54831 -135.02328,354.95456 -132.02328,342.04831 -144.14828,335.86081 -152.83578,345.86081 -154.86703,349.20456 -158.55453,357.23581 -175.30453,350.29831 -172.21078,341.98581 -171.30453,338.20456 -170.36703,325.01706 -183.33578,320.79831 -190.33578,332.04831 -191.80453,335.64206 -194.21078,344.17331 -211.83578,339.95456 -210.08578,331.26706 -209.77328,327.36081 -210.89828,314.17331 -224.36703,312.04831 -229.52328,324.23581 -230.42953,328.01706 -231.42953,336.82956 -249.52328,335.42331 -249.14828,326.54831 -249.46078,322.67331 -252.64828,309.82956 -266.24203,309.82956 z M -259.46078,357.61081 C -143.61041,357.61081 -48.696148,447.35317 -40.492028,561.11081 L -216.39828,561.11081 C -222.90195,543.63156 -239.71631,531.17331 -259.46078,531.17331 -262.07193,531.17331 -264.62478,531.41119 -267.11703,531.82956 L -355.05453,379.48581 C -326.15512,365.48197 -293.73265,357.61081 -259.46078,357.61081 z M -382.77328,395.51706 -294.83578,547.79831 C -301.44145,555.75663 -305.39828,565.95998 -305.39828,577.11081 -305.39828,588.25474 -301.46535,598.49837 -294.86703,606.45456 L -382.77328,758.73581 C -440.82518,719.23188 -478.96078,652.62568 -478.96078,577.11081 -478.96078,501.59594 -440.82518,435.01184 -382.77328,395.51706 z M -259.46078,554.01706 C -246.70399,554.01706 -236.36703,564.35402 -236.36703,577.11081 -236.36703,589.8676 -246.70399,600.20456 -259.46078,600.20456 -272.21757,600.20456 -282.55453,589.8676 -282.55453,577.11081 -282.55453,564.35402 -272.21757,554.01706 -259.46078,554.01706 z M -216.36703,593.11081 -40.492028,593.11081 C -48.696148,706.87099 -143.61041,796.64206 -259.46078,796.64206 -293.73221,796.64206 -326.15541,788.77414 -355.05453,774.76706 L -267.11703,622.42331 C -264.62478,622.84168 -262.07193,623.07956 -259.46078,623.07956 -239.70203,623.07956 -222.86044,610.60997 -216.36703,593.11081 z"
         id="path3228"
         inkscape:connector-curvature="0" />
      <path
         clip-path="url(#clipPath4511)"
         id="path4268-5"
         style="fill:url(#linearGradient4551);fill-opacity:1;stroke:none;filter:url(#filter4264-6)"
         d="M 720,598.07647 564.2325,943.07647 875.7675,943.07647 720,598.07647 z M 564.2325,253.07647 720,598.07647 875.7675,253.07647 564.2325,253.07647 z"
         inkscape:connector-curvature="0"
         transform="matrix(1.8603194,-0.18681025,0.09256379,0.92178146,-1654.2354,160.33401)" />
    </g>
  </g>
</svg>
